<svg xmlns="http://www.w3.org/2000/svg" xmlns:xlink="http://www.w3.org/1999/xlink" width="558" zoomAndPan="magnify" viewBox="0 0 418.5 162.749997" height="217" preserveAspectRatio="xMidYMid meet" version="1.0"><defs><g/><clipPath id="ecf96d6323"><path d="M 132.332031 39 L 184 39 L 184 125.582031 L 132.332031 125.582031 Z M 132.332031 39 " clip-rule="nonzero"/></clipPath><clipPath id="c2962dc8e6"><path d="M 215 39 L 266.375 39 L 266.375 125.582031 L 215 125.582031 Z M 215 39 " clip-rule="nonzero"/></clipPath><clipPath id="b426731a1c"><path d="M 162 16.25 L 236 16.25 L 236 123 L 162 123 Z M 162 16.25 " clip-rule="nonzero"/></clipPath><clipPath id="9e9b1c40b2"><path d="M 98.128906 0 L 177.507812 0 L 177.507812 72.988281 L 98.128906 72.988281 Z M 98.128906 0 " clip-rule="nonzero"/></clipPath></defs><g clip-path="url(#ecf96d6323)"><path fill="#145da0" d="M 139.90625 100.453125 L 139.886719 40.359375 C 137.570312 39.941406 135.078125 39.695312 132.339844 39.695312 L 132.339844 106.988281 C 132.339844 106.988281 162.664062 110.550781 183.070312 125.648438 C 173.640625 114.785156 159.554688 105.765625 139.90625 100.453125 " fill-opacity="1" fill-rule="nonzero"/></g><path fill="#56aeff" d="M 155.210938 87.308594 L 155.164062 31.335938 C 152.804688 30.183594 150.242188 29.175781 147.4375 28.363281 L 147.4375 95.65625 C 147.4375 95.65625 171.988281 102.1875 188.835938 121.410156 C 181.097656 108.214844 170.148438 94.871094 155.210938 87.308594 " fill-opacity="1" fill-rule="nonzero"/><g clip-path="url(#c2962dc8e6)"><path fill="#145da0" d="M 258.578125 100.453125 L 258.597656 40.359375 C 260.914062 39.941406 263.410156 39.695312 266.148438 39.695312 L 266.148438 106.988281 C 266.148438 106.988281 235.824219 110.550781 215.417969 125.648438 C 224.847656 114.785156 238.929688 105.765625 258.578125 100.453125 " fill-opacity="1" fill-rule="nonzero"/></g><path fill="#56aeff" d="M 243.273438 87.308594 L 243.320312 31.335938 C 245.683594 30.183594 248.242188 29.175781 251.050781 28.363281 L 251.050781 95.65625 C 251.050781 95.65625 226.5 102.1875 209.652344 121.410156 C 217.386719 108.214844 228.339844 94.871094 243.273438 87.308594 " fill-opacity="1" fill-rule="nonzero"/><g clip-path="url(#b426731a1c)"><path fill="#00418b" d="M 199.242188 54.207031 C 199.242188 54.207031 189.222656 33.175781 162.710938 16.253906 L 162.710938 83.550781 C 162.710938 83.550781 182.546875 96.636719 198.03125 122.738281 L 198.03125 87.359375 C 195.941406 86.890625 194.390625 84.621094 194.390625 82.667969 C 194.390625 80.355469 196.5625 77.832031 199.242188 77.832031 C 201.921875 77.832031 204.097656 80.355469 204.097656 82.667969 C 204.097656 84.621094 202.546875 86.890625 200.457031 87.359375 L 200.457031 122.738281 C 215.9375 96.636719 235.773438 83.550781 235.773438 83.550781 L 235.773438 16.253906 C 209.261719 33.175781 199.242188 54.207031 199.242188 54.207031 " fill-opacity="1" fill-rule="nonzero"/></g><g clip-path="url(#9e9b1c40b2)"><path fill="#ffffff" d="M 117.246094 72.765625 C 116.773438 72.765625 116.332031 72.664062 115.9375 72.457031 C 115.242188 72.097656 114.703125 71.511719 114.273438 71.03125 C 114.203125 70.945312 114.125 70.867188 114.058594 70.796875 C 109.96875 66.433594 108.320312 60.042969 109.804688 54.40625 C 109.574219 52.652344 110.414062 50.988281 111.855469 50.113281 C 111.703125 48.519531 111.703125 46.75 111.847656 44.648438 C 111.910156 43.738281 111.988281 42.878906 112.074219 42.054688 C 108.574219 42.566406 104.960938 43.089844 101.515625 43.96875 C 101.339844 44.011719 101.167969 44.035156 100.996094 44.035156 C 100.699219 44.035156 100.421875 43.976562 100.15625 43.855469 C 99.574219 43.625 99.144531 43.132812 98.972656 42.515625 L 98.9375 42.371094 C 98.644531 41.304688 98.34375 40.199219 98.230469 39.035156 C 98.148438 38.210938 98.550781 37.449219 99.246094 37.070312 C 101.316406 35.496094 103.421875 33.882812 105.449219 32.320312 C 112.707031 26.75 120.207031 20.988281 127.957031 15.773438 C 128.015625 14.871094 128.34375 14.039062 128.921875 13.316406 C 129.570312 12.507812 130.5 12.0625 131.546875 12.0625 C 132.160156 12.0625 132.785156 12.222656 133.363281 12.515625 C 139.296875 9.34375 145.570312 7.359375 152.011719 5.445312 C 154.597656 4.679688 157.191406 3.703125 159.695312 2.773438 C 160.519531 2.464844 161.351562 2.15625 162.175781 1.855469 C 165.84375 0.507812 169.175781 -0.664062 172.347656 -1.738281 C 172.605469 -1.847656 172.863281 -1.898438 173.136719 -1.898438 C 173.199219 -1.898438 173.265625 -1.898438 173.328125 -1.890625 C 173.542969 -1.867188 173.75 -1.820312 173.945312 -1.738281 C 174.351562 -1.597656 174.710938 -1.332031 174.96875 -0.972656 L 176.625 1.320312 C 177.21875 2.136719 177.140625 3.210938 176.4375 3.910156 C 176.316406 4.054688 176.164062 4.175781 176.007812 4.277344 C 171.34375 7.277344 167.097656 10.121094 163.019531 12.988281 C 162.324219 13.480469 161.59375 13.996094 160.835938 14.550781 C 163.695312 16.453125 166.316406 18.691406 168.644531 21.210938 C 169.039062 21.640625 169.230469 22.179688 169.203125 22.738281 C 169.203125 22.808594 169.195312 22.917969 169.175781 23.039062 C 168.472656 27.59375 167.460938 31.152344 165.988281 34.25 C 164.417969 37.527344 162.183594 40.238281 159.332031 42.300781 C 155.949219 44.757812 152.019531 46.339844 149.351562 47.3125 C 142.820312 49.679688 135.628906 50.894531 127.964844 50.894531 C 127.417969 50.894531 126.859375 50.890625 126.308594 50.875 C 125.714844 50.859375 125.164062 50.601562 124.785156 50.171875 C 124.734375 50.113281 124.667969 50.042969 124.605469 49.957031 C 123.921875 48.996094 123.308594 47.972656 122.761719 46.90625 C 122.714844 46.820312 122.671875 46.734375 122.628906 46.640625 C 122.210938 45.796875 121.839844 44.921875 121.523438 44.035156 C 121.460938 43.890625 121.402344 43.746094 121.367188 43.589844 C 121.042969 42.636719 120.785156 41.664062 120.578125 40.667969 C 120.027344 40.78125 119.441406 40.890625 118.816406 41.003906 C 118.515625 42.507812 118.300781 44.082031 118.171875 45.710938 C 118.058594 47.140625 117.957031 48.960938 118.113281 50.78125 C 118.878906 51.203125 119.503906 51.835938 119.898438 52.585938 C 120.292969 53.351562 120.433594 54.199219 120.320312 55.035156 C 121.171875 56.492188 122.382812 57.828125 123.566406 59.132812 L 123.578125 59.148438 C 123.867188 59.464844 124.195312 59.777344 124.539062 60.113281 C 125.199219 60.753906 125.871094 61.410156 126.421875 62.199219 C 126.78125 62.714844 126.875 63.339844 126.710938 63.917969 C 126.25 66.792969 124.785156 69.253906 122.5625 70.851562 C 121.351562 71.726562 119.898438 72.335938 118.371094 72.609375 L 118.234375 72.636719 C 117.957031 72.699219 117.628906 72.765625 117.246094 72.765625 Z M 117.246094 72.765625 " fill-opacity="1" fill-rule="nonzero"/></g><path fill="#00418b" d="M 175.292969 2.832031 C 175.253906 2.875 175.210938 2.917969 175.164062 2.953125 C 170.757812 5.78125 166.402344 8.691406 162.125 11.699219 C 160.757812 12.660156 159.402344 13.640625 158.058594 14.621094 C 161.558594 16.699219 164.734375 19.253906 167.496094 22.25 C 167.621094 22.378906 167.65625 22.523438 167.640625 22.664062 C 167.640625 22.703125 167.640625 22.738281 167.632812 22.78125 C 167.066406 26.484375 166.195312 30.171875 164.574219 33.5625 C 163.148438 36.546875 161.09375 39.078125 158.40625 41.023438 C 155.519531 43.125 152.152344 44.613281 148.808594 45.832031 C 141.632812 48.460938 133.964844 49.492188 126.34375 49.320312 C 126.164062 49.3125 126.03125 49.242188 125.945312 49.125 C 125.921875 49.105469 125.902344 49.078125 125.878906 49.046875 C 125.21875 48.117188 124.640625 47.140625 124.132812 46.132812 C 124.101562 46.089844 124.082031 46.046875 124.058594 45.996094 C 123.644531 45.152344 123.277344 44.285156 122.964844 43.402344 C 122.921875 43.339844 122.898438 43.261719 122.886719 43.1875 C 122.398438 41.769531 122.054688 40.300781 121.847656 38.796875 C 120.414062 39.125 118.964844 39.40625 117.519531 39.65625 C 117.074219 41.613281 116.78125 43.605469 116.625 45.589844 C 116.460938 47.65625 116.386719 49.800781 116.675781 51.871094 C 116.710938 51.878906 116.746094 51.882812 116.78125 51.890625 C 118.257812 52.34375 119.160156 53.796875 118.679688 55.273438 C 119.625 57.097656 121.066406 58.691406 122.433594 60.199219 C 123.300781 61.152344 124.417969 62.042969 125.15625 63.101562 C 125.257812 63.253906 125.261719 63.417969 125.199219 63.5625 C 124.847656 65.96875 123.644531 68.171875 121.652344 69.605469 C 120.605469 70.367188 119.367188 70.867188 118.101562 71.097656 C 117.589844 71.1875 117.097656 71.3125 116.640625 71.082031 C 116.101562 70.800781 115.59375 70.179688 115.183594 69.742188 C 111.453125 65.757812 109.871094 59.757812 111.394531 54.492188 C 111.382812 54.449219 111.375 54.40625 111.367188 54.355469 C 111.101562 52.867188 112.0625 51.425781 113.535156 51.109375 C 113.222656 49.019531 113.25 46.863281 113.394531 44.769531 C 113.492188 43.308594 113.644531 41.777344 113.886719 40.238281 C 109.617188 40.867188 105.328125 41.410156 101.128906 42.480469 C 100.996094 42.515625 100.871094 42.492188 100.773438 42.441406 C 100.636719 42.394531 100.519531 42.277344 100.464844 42.097656 C 100.175781 41.046875 99.875 39.972656 99.769531 38.890625 C 99.746094 38.640625 99.875 38.480469 100.046875 38.410156 C 100.046875 38.410156 100.054688 38.410156 100.054688 38.402344 C 109.789062 31.011719 119.359375 23.382812 129.53125 16.589844 C 129.410156 15.804688 129.5625 15 130.128906 14.300781 C 130.914062 13.316406 132.242188 13.511719 133.148438 14.21875 C 133.199219 14.253906 133.25 14.300781 133.292969 14.34375 C 133.328125 14.304688 133.363281 14.277344 133.414062 14.25 C 139.402344 10.933594 145.914062 8.867188 152.441406 6.929688 C 155.921875 5.894531 159.296875 4.550781 162.699219 3.304688 C 166.085938 2.0625 169.480469 0.851562 172.898438 -0.300781 C 172.992188 -0.34375 173.085938 -0.363281 173.171875 -0.351562 C 173.242188 -0.34375 173.3125 -0.320312 173.363281 -0.292969 C 173.488281 -0.265625 173.601562 -0.199219 173.6875 -0.078125 C 174.238281 0.6875 174.789062 1.449219 175.339844 2.214844 C 175.527344 2.449219 175.457031 2.679688 175.292969 2.832031 Z M 175.292969 2.832031 " fill-opacity="1" fill-rule="nonzero"/><path fill="#56aeff" d="M 175.347656 2.207031 C 174.796875 1.441406 174.246094 0.679688 173.695312 -0.0859375 C 173.609375 -0.207031 173.492188 -0.277344 173.371094 -0.300781 C 173.3125 -0.335938 173.25 -0.355469 173.179688 -0.355469 C 173.09375 -0.371094 173 -0.351562 172.90625 -0.308594 C 169.488281 0.847656 166.09375 2.058594 162.707031 3.296875 C 159.304688 4.542969 155.921875 5.890625 152.449219 6.921875 C 145.921875 8.863281 139.410156 10.933594 133.421875 14.242188 C 133.371094 14.269531 133.335938 14.296875 133.300781 14.335938 C 133.25 14.292969 133.207031 14.25 133.15625 14.210938 C 132.246094 13.503906 130.929688 13.304688 130.132812 14.292969 C 129.570312 14.992188 129.417969 15.796875 129.539062 16.582031 C 119.367188 23.375 109.796875 31.003906 100.0625 38.394531 C 100.0625 38.394531 100.054688 38.394531 100.054688 38.402344 C 99.882812 38.46875 99.746094 38.625 99.777344 38.882812 C 99.882812 39.972656 100.183594 41.046875 100.472656 42.09375 C 100.519531 42.277344 100.636719 42.386719 100.777344 42.4375 C 100.878906 42.484375 101 42.5 101.136719 42.472656 C 105.328125 41.40625 109.617188 40.859375 113.894531 40.230469 C 113.660156 41.769531 113.507812 43.304688 113.402344 44.765625 C 113.257812 46.855469 113.230469 49.011719 113.542969 51.105469 C 112.074219 51.417969 111.109375 52.859375 111.375 54.347656 C 111.382812 54.390625 111.394531 54.441406 111.402344 54.484375 C 109.875 59.75 111.460938 65.753906 115.191406 69.734375 C 115.601562 70.171875 116.101562 70.796875 116.644531 71.074219 C 117.105469 71.3125 117.597656 71.183594 118.105469 71.089844 C 119.375 70.859375 120.613281 70.359375 121.660156 69.597656 C 123.652344 68.167969 124.847656 65.960938 125.207031 63.554688 C 125.269531 63.410156 125.261719 63.246094 125.164062 63.09375 C 124.425781 62.035156 123.300781 61.148438 122.441406 60.195312 C 121.074219 58.683594 119.632812 57.09375 118.6875 55.265625 C 119.167969 53.789062 118.265625 52.335938 116.789062 51.882812 C 116.753906 51.871094 116.71875 51.871094 116.683594 51.863281 C 116.394531 49.785156 116.46875 47.644531 116.632812 45.582031 C 116.789062 43.589844 117.074219 41.597656 117.527344 39.648438 C 118.972656 39.398438 120.421875 39.125 121.855469 38.789062 C 122.0625 40.292969 122.40625 41.761719 122.890625 43.179688 C 122.90625 43.261719 122.929688 43.332031 122.972656 43.394531 C 123.277344 44.285156 123.644531 45.152344 124.066406 45.988281 C 124.082031 46.039062 124.109375 46.082031 124.136719 46.125 C 124.648438 47.136719 125.226562 48.109375 125.886719 49.039062 C 125.90625 49.070312 125.929688 49.097656 125.949219 49.121094 C 126.035156 49.226562 126.164062 49.304688 126.351562 49.3125 C 133.972656 49.484375 141.644531 48.453125 148.824219 45.824219 C 152.167969 44.597656 155.527344 43.117188 158.421875 41.019531 C 161.109375 39.070312 163.15625 36.539062 164.589844 33.554688 C 166.207031 30.160156 167.074219 26.46875 167.648438 22.773438 C 167.65625 22.738281 167.65625 22.695312 167.65625 22.660156 C 167.667969 22.523438 167.625 22.371094 167.511719 22.242188 C 164.746094 19.253906 161.574219 16.691406 158.070312 14.613281 C 159.417969 13.625 160.773438 12.652344 162.140625 11.691406 C 166.421875 8.683594 170.777344 5.773438 175.175781 2.945312 C 175.234375 2.910156 175.277344 2.867188 175.304688 2.824219 C 175.457031 2.679688 175.527344 2.449219 175.347656 2.207031 Z M 114.082031 39.125 C 114.046875 39.125 114.015625 39.125 113.980469 39.132812 C 109.761719 39.765625 105.519531 40.289062 101.375 41.296875 C 101.1875 40.636719 101.007812 39.964844 100.910156 39.292969 C 105.378906 38.203125 109.960938 37.773438 114.511719 37.113281 C 114.347656 37.78125 114.203125 38.453125 114.082031 39.125 Z M 130.742188 15.410156 C 131.34375 14.105469 132.664062 15.03125 133.191406 15.894531 C 133.628906 16.605469 133.816406 17.445312 134.003906 18.246094 C 133.859375 18.78125 133.371094 19.15625 132.804688 19.113281 C 132.769531 19.105469 132.742188 19.113281 132.714844 19.113281 C 131.453125 18.53125 130.085938 16.839844 130.742188 15.410156 Z M 164.480469 20.761719 C 165.191406 21.417969 165.871094 22.101562 166.539062 22.808594 C 165.5625 28.96875 163.671875 35.421875 158.636719 39.492188 C 155.835938 41.753906 152.425781 43.308594 149.074219 44.578125 C 145.722656 45.847656 142.238281 46.777344 138.707031 47.378906 C 134.71875 48.066406 130.671875 48.308594 126.625 48.238281 C 126.203125 47.621094 125.816406 46.992188 125.449219 46.339844 C 132.570312 46.28125 139.691406 45.15625 146.367188 42.628906 C 149.691406 41.367188 153.019531 39.855469 155.859375 37.695312 C 158.378906 35.765625 160.296875 33.289062 161.644531 30.421875 C 163.085938 27.371094 163.921875 24.082031 164.480469 20.761719 Z M 160.742188 17.6875 C 159.769531 23.46875 157.949219 29.5 153.359375 33.4375 C 150.820312 35.609375 147.726562 37.121094 144.652344 38.375 C 141.574219 39.636719 138.378906 40.601562 135.121094 41.28125 C 131.394531 42.0625 127.605469 42.449219 123.800781 42.542969 C 123.378906 41.246094 123.070312 39.914062 122.898438 38.546875 C 125.207031 37.964844 127.460938 37.222656 129.613281 36.183594 C 133.449219 34.335938 136.761719 31.605469 140 28.875 C 145.5625 24.183594 151.25 19.636719 157.105469 15.316406 C 158.363281 16.046875 159.574219 16.835938 160.742188 17.6875 Z M 152.210938 17.636719 C 148.609375 20.402344 145.0625 23.238281 141.574219 26.148438 C 138.207031 28.953125 134.925781 31.925781 131.121094 34.148438 C 127.027344 36.546875 122.433594 37.679688 117.800781 38.511719 C 117.976562 37.816406 118.179688 37.136719 118.40625 36.460938 L 118.40625 36.453125 C 122.242188 35.675781 126.007812 34.441406 129.398438 32.445312 C 133.019531 30.300781 136.1875 27.480469 139.382812 24.765625 C 146.078125 19.070312 153.222656 13.941406 160.519531 9.046875 C 164.667969 6.269531 168.859375 3.566406 173.054688 0.875 C 173.40625 1.363281 173.765625 1.847656 174.117188 2.34375 C 166.625 7.164062 159.28125 12.222656 152.210938 17.636719 Z M 152.210938 17.636719 " fill-opacity="1" fill-rule="nonzero"/><path fill="#00418b" d="M 175.347656 2.207031 C 174.796875 1.441406 174.246094 0.679688 173.695312 -0.0859375 C 173.609375 -0.207031 173.492188 -0.277344 173.371094 -0.300781 C 173.3125 -0.335938 173.25 -0.355469 173.179688 -0.355469 C 173.09375 -0.371094 173 -0.351562 172.90625 -0.308594 C 169.488281 0.847656 166.09375 2.058594 162.707031 3.296875 C 159.304688 4.542969 155.921875 5.890625 152.449219 6.921875 C 145.921875 8.863281 139.410156 10.933594 133.421875 14.242188 C 133.371094 14.269531 133.335938 14.296875 133.300781 14.335938 C 133.25 14.292969 133.207031 14.25 133.15625 14.210938 C 132.246094 13.503906 130.929688 13.304688 130.132812 14.292969 C 129.570312 14.992188 129.417969 15.796875 129.539062 16.582031 C 119.367188 23.375 109.796875 31.003906 100.0625 38.394531 C 100.0625 38.394531 100.054688 38.394531 100.054688 38.402344 C 99.882812 38.46875 99.746094 38.625 99.777344 38.882812 C 99.882812 39.972656 100.183594 41.046875 100.472656 42.09375 C 100.519531 42.277344 100.636719 42.386719 100.777344 42.4375 C 100.878906 42.484375 101 42.5 101.136719 42.472656 C 105.328125 41.40625 109.617188 40.859375 113.894531 40.230469 C 113.660156 41.769531 113.507812 43.304688 113.402344 44.765625 C 113.257812 46.855469 113.230469 49.011719 113.542969 51.105469 C 112.074219 51.417969 111.109375 52.859375 111.375 54.347656 C 111.382812 54.390625 111.394531 54.441406 111.402344 54.484375 C 109.875 59.75 111.460938 65.753906 115.191406 69.734375 C 115.601562 70.171875 116.101562 70.796875 116.644531 71.074219 C 117.105469 71.3125 117.597656 71.183594 118.105469 71.089844 C 119.375 70.859375 120.613281 70.359375 121.660156 69.597656 C 123.652344 68.167969 124.847656 65.960938 125.207031 63.554688 C 125.269531 63.410156 125.261719 63.246094 125.164062 63.09375 C 124.425781 62.035156 123.300781 61.148438 122.441406 60.195312 C 121.074219 58.683594 119.632812 57.09375 118.6875 55.265625 C 119.167969 53.789062 118.265625 52.335938 116.789062 51.882812 C 116.753906 51.871094 116.71875 51.871094 116.683594 51.863281 C 116.394531 49.785156 116.46875 47.644531 116.632812 45.582031 C 116.789062 43.589844 117.074219 41.597656 117.527344 39.648438 C 118.972656 39.398438 120.421875 39.125 121.855469 38.789062 C 122.0625 40.292969 122.40625 41.761719 122.890625 43.179688 C 122.90625 43.261719 122.929688 43.332031 122.972656 43.394531 C 123.277344 44.285156 123.644531 45.152344 124.066406 45.988281 C 124.082031 46.039062 124.109375 46.082031 124.136719 46.125 C 124.648438 47.136719 125.226562 48.109375 125.886719 49.039062 C 125.90625 49.070312 125.929688 49.097656 125.949219 49.121094 C 126.035156 49.226562 126.164062 49.304688 126.351562 49.3125 C 133.972656 49.484375 141.644531 48.453125 148.824219 45.824219 C 152.167969 44.597656 155.527344 43.117188 158.421875 41.019531 C 161.109375 39.070312 163.15625 36.539062 164.589844 33.554688 C 166.207031 30.160156 167.074219 26.46875 167.648438 22.773438 C 167.65625 22.738281 167.65625 22.695312 167.65625 22.660156 C 167.667969 22.523438 167.625 22.371094 167.511719 22.242188 C 164.746094 19.253906 161.574219 16.691406 158.070312 14.613281 C 159.417969 13.625 160.773438 12.652344 162.140625 11.691406 C 166.421875 8.683594 170.777344 5.773438 175.175781 2.945312 C 175.234375 2.910156 175.277344 2.867188 175.304688 2.824219 C 175.457031 2.679688 175.527344 2.449219 175.347656 2.207031 Z M 130.742188 15.410156 C 131.34375 14.105469 132.664062 15.03125 133.191406 15.894531 C 133.628906 16.605469 133.816406 17.445312 134.003906 18.246094 C 133.859375 18.78125 133.371094 19.15625 132.804688 19.113281 C 132.769531 19.105469 132.742188 19.113281 132.714844 19.113281 C 131.453125 18.53125 130.085938 16.839844 130.742188 15.410156 Z M 101.375 41.296875 C 101.1875 40.636719 101.007812 39.964844 100.910156 39.292969 C 105.378906 38.203125 109.960938 37.773438 114.511719 37.113281 C 114.347656 37.78125 114.203125 38.453125 114.074219 39.125 C 114.039062 39.125 114.011719 39.125 113.972656 39.132812 C 109.761719 39.757812 105.519531 40.28125 101.375 41.296875 Z M 118.027344 56.332031 C 118.921875 57.878906 120.15625 59.261719 121.332031 60.582031 C 121.984375 61.320312 122.65625 62.035156 123.335938 62.742188 C 123.542969 62.957031 123.757812 63.171875 123.964844 63.386719 C 123.988281 63.410156 124.050781 63.480469 124.117188 63.554688 C 123.902344 64.777344 123.464844 65.9375 122.777344 66.949219 C 122.757812 66.914062 122.726562 66.871094 122.691406 66.835938 C 120.515625 64.613281 119.011719 61.914062 118.257812 58.898438 C 118.085938 58.222656 117.046875 58.511719 117.21875 59.183594 C 118.015625 62.371094 119.632812 65.25 121.933594 67.601562 C 122.003906 67.671875 122.074219 67.714844 122.15625 67.738281 C 121.847656 68.074219 121.503906 68.386719 121.121094 68.667969 C 120.664062 69.003906 120.164062 69.285156 119.648438 69.507812 C 118.492188 68.351562 117.542969 67.054688 116.769531 65.625 C 116.4375 65.015625 115.507812 65.558594 115.835938 66.167969 C 116.566406 67.527344 117.46875 68.777344 118.523438 69.894531 C 118.394531 69.929688 118.265625 69.957031 118.128906 69.984375 C 117.261719 70.171875 117.113281 70.085938 116.503906 69.507812 C 116.09375 69.121094 115.714844 68.710938 115.363281 68.273438 C 112.589844 64.898438 111.34375 60.25 112.167969 55.960938 C 112.648438 56.503906 113.285156 56.898438 113.996094 57.105469 C 113.886719 58.039062 113.875 58.960938 113.960938 59.894531 C 114.023438 60.582031 115.105469 60.585938 115.042969 59.894531 C 114.960938 59.019531 114.96875 58.152344 115.0625 57.285156 C 116.109375 57.34375 117.277344 57.070312 118.027344 56.332031 Z M 116.984375 53.941406 C 117.027344 53.839844 117.039062 53.726562 117.003906 53.597656 C 116.96875 53.433594 116.925781 53.265625 116.890625 53.101562 C 117.578125 53.496094 117.886719 54.269531 117.632812 54.964844 C 117.597656 55.023438 117.570312 55.078125 117.554688 55.144531 C 117.460938 55.328125 117.320312 55.5 117.140625 55.660156 C 116.46875 56.234375 115.34375 56.324219 114.496094 56.125 C 113.609375 55.917969 112.792969 55.335938 112.503906 54.433594 C 112.175781 53.410156 112.734375 52.421875 113.738281 52.148438 C 113.773438 52.308594 113.808594 52.457031 113.84375 52.613281 C 114.167969 53.8125 115.398438 54.132812 116.480469 54.261719 C 116.769531 54.320312 116.933594 54.148438 116.984375 53.941406 Z M 117.117188 36.949219 C 116.289062 39.707031 115.792969 42.578125 115.558594 45.445312 C 115.347656 47.957031 115.292969 50.582031 115.777344 53.082031 C 115.371094 52.964844 114.992188 52.765625 114.875 52.351562 C 113.765625 47.824219 114.410156 42.636719 115.457031 38.160156 C 115.980469 35.902344 116.683594 33.617188 117.863281 31.613281 C 119.289062 29.199219 121.710938 27.320312 123.980469 25.746094 C 126.867188 23.738281 129.992188 22.09375 133 20.273438 C 133.058594 20.257812 133.105469 20.230469 133.148438 20.1875 C 134.074219 20.085938 134.941406 19.328125 135.070312 18.394531 C 135.070312 18.382812 135.070312 18.367188 135.078125 18.351562 C 135.089844 18.273438 135.089844 18.195312 135.070312 18.109375 C 135.070312 18.09375 135.0625 18.082031 135.0625 18.074219 C 135.371094 18.195312 135.664062 18.382812 135.886719 18.632812 C 136.34375 19.148438 136.015625 19.65625 135.578125 20.085938 C 134.933594 20.71875 134.109375 21.148438 133.34375 21.589844 C 131.738281 22.523438 130.113281 23.402344 128.515625 24.335938 C 125.484375 26.097656 122.457031 28.074219 120.164062 30.765625 C 118.664062 32.53125 117.785156 34.757812 117.117188 36.949219 Z M 166.539062 22.808594 C 165.5625 28.96875 163.671875 35.421875 158.636719 39.492188 C 155.835938 41.753906 152.425781 43.308594 149.074219 44.578125 C 145.722656 45.847656 142.238281 46.777344 138.707031 47.378906 C 134.71875 48.066406 130.671875 48.308594 126.625 48.238281 C 126.203125 47.621094 125.816406 46.992188 125.449219 46.339844 C 132.570312 46.28125 139.691406 45.15625 146.367188 42.628906 C 149.691406 41.367188 153.019531 39.855469 155.859375 37.695312 C 158.378906 35.765625 160.296875 33.289062 161.644531 30.421875 C 163.078125 27.363281 163.917969 24.078125 164.476562 20.761719 C 165.191406 21.417969 165.871094 22.101562 166.539062 22.808594 Z M 163.53125 19.90625 C 162.570312 25.902344 160.742188 32.222656 155.921875 36.269531 C 153.265625 38.496094 150.011719 40.035156 146.808594 41.304688 C 143.535156 42.601562 140.140625 43.566406 136.679688 44.21875 C 132.792969 44.949219 128.84375 45.265625 124.898438 45.265625 C 124.632812 44.722656 124.398438 44.175781 124.183594 43.609375 C 131.085938 43.410156 137.964844 42.183594 144.394531 39.640625 C 147.519531 38.402344 150.628906 36.941406 153.300781 34.878906 C 155.734375 32.996094 157.582031 30.574219 158.902344 27.800781 C 160.304688 24.835938 161.144531 21.648438 161.710938 18.417969 C 162.332031 18.898438 162.941406 19.390625 163.53125 19.90625 Z M 160.742188 17.6875 C 159.769531 23.46875 157.949219 29.5 153.359375 33.4375 C 150.820312 35.609375 147.726562 37.121094 144.652344 38.375 C 141.574219 39.636719 138.378906 40.601562 135.121094 41.28125 C 131.394531 42.0625 127.605469 42.449219 123.800781 42.542969 C 123.378906 41.246094 123.070312 39.914062 122.898438 38.546875 C 125.207031 37.964844 127.460938 37.222656 129.613281 36.183594 C 133.449219 34.335938 136.761719 31.605469 140 28.875 C 145.5625 24.183594 151.25 19.636719 157.105469 15.316406 C 158.363281 16.046875 159.574219 16.835938 160.742188 17.6875 Z M 152.210938 17.636719 C 148.609375 20.402344 145.0625 23.238281 141.574219 26.148438 C 138.207031 28.953125 134.925781 31.925781 131.121094 34.148438 C 127.027344 36.546875 122.433594 37.679688 117.800781 38.511719 C 117.976562 37.816406 118.179688 37.136719 118.40625 36.460938 L 118.40625 36.453125 C 122.242188 35.675781 126.007812 34.441406 129.398438 32.445312 C 133.019531 30.300781 136.1875 27.480469 139.382812 24.765625 C 146.078125 19.070312 153.222656 13.941406 160.519531 9.046875 C 164.667969 6.269531 168.859375 3.566406 173.054688 0.875 C 173.40625 1.363281 173.765625 1.847656 174.117188 2.34375 C 166.625 7.164062 159.28125 12.222656 152.210938 17.636719 Z M 152.210938 17.636719 " fill-opacity="1" fill-rule="nonzero"/><path fill="#000000" d="M 175.347656 2.207031 C 174.796875 1.441406 174.246094 0.679688 173.695312 -0.0859375 C 173.609375 -0.207031 173.492188 -0.277344 173.371094 -0.300781 C 173.3125 -0.335938 173.25 -0.355469 173.179688 -0.355469 C 173.09375 -0.371094 173 -0.351562 172.90625 -0.308594 C 169.488281 0.847656 166.09375 2.058594 162.707031 3.296875 C 159.304688 4.542969 155.921875 5.890625 152.449219 6.921875 C 145.921875 8.863281 139.410156 10.933594 133.421875 14.242188 C 133.371094 14.269531 133.335938 14.296875 133.300781 14.335938 C 133.25 14.292969 133.207031 14.25 133.15625 14.210938 C 132.246094 13.503906 130.929688 13.304688 130.132812 14.292969 C 129.570312 14.992188 129.417969 15.796875 129.539062 16.582031 C 119.367188 23.375 109.796875 31.003906 100.0625 38.394531 C 100.0625 38.394531 100.054688 38.394531 100.054688 38.402344 C 99.882812 38.46875 99.746094 38.625 99.777344 38.882812 C 99.882812 39.972656 100.183594 41.046875 100.472656 42.09375 C 100.519531 42.277344 100.636719 42.386719 100.777344 42.4375 C 100.878906 42.484375 101 42.5 101.136719 42.472656 C 105.328125 41.40625 109.617188 40.859375 113.894531 40.230469 C 113.660156 41.769531 113.507812 43.304688 113.402344 44.765625 C 113.257812 46.855469 113.230469 49.011719 113.542969 51.105469 C 112.074219 51.417969 111.109375 52.859375 111.375 54.347656 C 111.382812 54.390625 111.394531 54.441406 111.402344 54.484375 C 109.875 59.75 111.460938 65.753906 115.191406 69.734375 C 115.601562 70.171875 116.101562 70.796875 116.644531 71.074219 C 117.105469 71.3125 117.597656 71.183594 118.105469 71.089844 C 119.375 70.859375 120.613281 70.359375 121.660156 69.597656 C 123.652344 68.167969 124.847656 65.960938 125.207031 63.554688 C 125.269531 63.410156 125.261719 63.246094 125.164062 63.09375 C 124.425781 62.035156 123.300781 61.148438 122.441406 60.195312 C 121.074219 58.683594 119.632812 57.09375 118.6875 55.265625 C 119.167969 53.789062 118.265625 52.335938 116.789062 51.882812 C 116.753906 51.871094 116.71875 51.871094 116.683594 51.863281 C 116.394531 49.785156 116.46875 47.644531 116.632812 45.582031 C 116.789062 43.589844 117.074219 41.597656 117.527344 39.648438 C 118.972656 39.398438 120.421875 39.125 121.855469 38.789062 C 122.0625 40.292969 122.40625 41.761719 122.890625 43.179688 C 122.90625 43.261719 122.929688 43.332031 122.972656 43.394531 C 123.277344 44.285156 123.644531 45.152344 124.066406 45.988281 C 124.082031 46.039062 124.109375 46.082031 124.136719 46.125 C 124.648438 47.136719 125.226562 48.109375 125.886719 49.039062 C 125.90625 49.070312 125.929688 49.097656 125.949219 49.121094 C 126.035156 49.226562 126.164062 49.304688 126.351562 49.3125 C 133.972656 49.484375 141.644531 48.453125 148.824219 45.824219 C 152.167969 44.597656 155.527344 43.117188 158.421875 41.019531 C 161.109375 39.070312 163.15625 36.539062 164.589844 33.554688 C 166.207031 30.160156 167.074219 26.46875 167.648438 22.773438 C 167.65625 22.738281 167.65625 22.695312 167.65625 22.660156 C 167.667969 22.523438 167.625 22.371094 167.511719 22.242188 C 164.746094 19.253906 161.574219 16.691406 158.070312 14.613281 C 159.417969 13.625 160.773438 12.652344 162.140625 11.691406 C 166.421875 8.683594 170.777344 5.773438 175.175781 2.945312 C 175.234375 2.910156 175.277344 2.867188 175.304688 2.824219 C 175.457031 2.679688 175.527344 2.449219 175.347656 2.207031 Z M 153.113281 7.851562 C 156.460938 6.84375 159.710938 5.539062 162.992188 4.34375 C 165.003906 3.605469 167.023438 2.878906 169.050781 2.171875 C 162.925781 6.117188 156.839844 10.128906 150.9375 14.390625 C 147.542969 16.847656 144.203125 19.382812 140.957031 22.050781 C 137.613281 24.800781 134.433594 27.789062 130.851562 30.238281 C 127.203125 32.738281 123.15625 34.304688 118.867188 35.257812 C 119.832031 32.910156 121.203125 31.011719 123.214844 29.269531 C 126.136719 26.742188 129.617188 24.964844 132.964844 23.058594 C 134.316406 22.285156 136.464844 21.398438 137.113281 19.835938 C 137.691406 18.425781 136.289062 17.207031 135.019531 16.914062 C 134.941406 16.890625 134.863281 16.890625 134.789062 16.90625 C 134.605469 16.28125 134.367188 15.679688 134.023438 15.152344 C 140.027344 11.828125 146.558594 9.828125 153.113281 7.851562 Z M 130.742188 15.410156 C 131.34375 14.105469 132.664062 15.03125 133.191406 15.894531 C 133.628906 16.605469 133.816406 17.445312 134.003906 18.246094 C 133.859375 18.78125 133.371094 19.15625 132.804688 19.113281 C 132.769531 19.105469 132.742188 19.113281 132.714844 19.113281 C 131.453125 18.53125 130.085938 16.839844 130.742188 15.410156 Z M 129.875 17.652344 C 130.277344 18.503906 130.957031 19.269531 131.722656 19.777344 C 129.101562 21.332031 126.417969 22.800781 123.878906 24.507812 C 121.488281 26.125 118.996094 28.007812 117.339844 30.421875 C 116.207031 32.070312 115.398438 33.976562 114.8125 35.980469 C 110.742188 36.589844 106.632812 36.984375 102.605469 37.800781 C 111.589844 30.9375 120.476562 23.941406 129.875 17.652344 Z M 101.375 41.296875 C 101.1875 40.636719 101.007812 39.964844 100.910156 39.292969 C 105.378906 38.203125 109.960938 37.773438 114.511719 37.113281 C 114.347656 37.78125 114.203125 38.453125 114.074219 39.125 C 114.039062 39.125 114.011719 39.125 113.972656 39.132812 C 109.761719 39.757812 105.519531 40.28125 101.375 41.296875 Z M 118.027344 56.332031 C 118.921875 57.878906 120.15625 59.261719 121.332031 60.582031 C 121.984375 61.320312 122.65625 62.035156 123.335938 62.742188 C 123.542969 62.957031 123.757812 63.171875 123.964844 63.386719 C 123.988281 63.410156 124.050781 63.480469 124.117188 63.554688 C 123.902344 64.777344 123.464844 65.9375 122.777344 66.949219 C 122.757812 66.914062 122.726562 66.871094 122.691406 66.835938 C 120.515625 64.613281 119.011719 61.914062 118.257812 58.898438 C 118.085938 58.222656 117.046875 58.511719 117.21875 59.183594 C 118.015625 62.371094 119.632812 65.25 121.933594 67.601562 C 122.003906 67.671875 122.074219 67.714844 122.15625 67.738281 C 121.847656 68.074219 121.503906 68.386719 121.121094 68.667969 C 120.664062 69.003906 120.164062 69.285156 119.648438 69.507812 C 118.492188 68.351562 117.542969 67.054688 116.769531 65.625 C 116.4375 65.015625 115.507812 65.558594 115.835938 66.167969 C 116.566406 67.527344 117.46875 68.777344 118.523438 69.894531 C 118.394531 69.929688 118.265625 69.957031 118.128906 69.984375 C 117.261719 70.171875 117.113281 70.085938 116.503906 69.507812 C 116.09375 69.121094 115.714844 68.710938 115.363281 68.273438 C 112.589844 64.898438 111.34375 60.25 112.167969 55.960938 C 112.648438 56.503906 113.285156 56.898438 113.996094 57.105469 C 113.886719 58.039062 113.875 58.960938 113.960938 59.894531 C 114.023438 60.582031 115.105469 60.585938 115.042969 59.894531 C 114.960938 59.019531 114.96875 58.152344 115.0625 57.285156 C 116.109375 57.34375 117.277344 57.070312 118.027344 56.332031 Z M 116.984375 53.941406 C 117.027344 53.839844 117.039062 53.726562 117.003906 53.597656 C 116.96875 53.433594 116.925781 53.265625 116.890625 53.101562 C 117.578125 53.496094 117.886719 54.269531 117.632812 54.964844 C 117.597656 55.023438 117.570312 55.078125 117.554688 55.144531 C 117.460938 55.328125 117.320312 55.5 117.140625 55.660156 C 116.46875 56.234375 115.34375 56.324219 114.496094 56.125 C 113.609375 55.917969 112.792969 55.335938 112.503906 54.433594 C 112.175781 53.410156 112.734375 52.421875 113.738281 52.148438 C 113.773438 52.308594 113.808594 52.457031 113.84375 52.613281 C 114.167969 53.8125 115.398438 54.132812 116.480469 54.261719 C 116.769531 54.320312 116.933594 54.148438 116.984375 53.941406 Z M 117.117188 36.949219 C 116.289062 39.707031 115.792969 42.578125 115.558594 45.445312 C 115.347656 47.957031 115.292969 50.582031 115.777344 53.082031 C 115.371094 52.964844 114.992188 52.765625 114.875 52.351562 C 113.765625 47.824219 114.410156 42.636719 115.457031 38.160156 C 115.980469 35.902344 116.683594 33.617188 117.863281 31.613281 C 119.289062 29.199219 121.710938 27.320312 123.980469 25.746094 C 126.867188 23.738281 129.992188 22.09375 133 20.273438 C 133.058594 20.257812 133.105469 20.230469 133.148438 20.1875 C 134.074219 20.085938 134.941406 19.328125 135.070312 18.394531 C 135.070312 18.382812 135.070312 18.367188 135.078125 18.351562 C 135.089844 18.273438 135.089844 18.195312 135.070312 18.109375 C 135.070312 18.09375 135.0625 18.082031 135.0625 18.074219 C 135.371094 18.195312 135.664062 18.382812 135.886719 18.632812 C 136.34375 19.148438 136.015625 19.65625 135.578125 20.085938 C 134.933594 20.71875 134.109375 21.148438 133.34375 21.589844 C 131.738281 22.523438 130.113281 23.402344 128.515625 24.335938 C 125.484375 26.097656 122.457031 28.074219 120.164062 30.765625 C 118.664062 32.53125 117.785156 34.757812 117.117188 36.949219 Z M 166.539062 22.808594 C 165.5625 28.96875 163.671875 35.421875 158.636719 39.492188 C 155.835938 41.753906 152.425781 43.308594 149.074219 44.578125 C 145.722656 45.847656 142.238281 46.777344 138.707031 47.378906 C 134.71875 48.066406 130.671875 48.308594 126.625 48.238281 C 126.203125 47.621094 125.816406 46.992188 125.449219 46.339844 C 132.570312 46.28125 139.691406 45.15625 146.367188 42.628906 C 149.691406 41.367188 153.019531 39.855469 155.859375 37.695312 C 158.378906 35.765625 160.296875 33.289062 161.644531 30.421875 C 163.078125 27.363281 163.917969 24.078125 164.476562 20.761719 C 165.191406 21.417969 165.871094 22.101562 166.539062 22.808594 Z M 163.53125 19.90625 C 162.570312 25.902344 160.742188 32.222656 155.921875 36.269531 C 153.265625 38.496094 150.011719 40.035156 146.808594 41.304688 C 143.535156 42.601562 140.140625 43.566406 136.679688 44.21875 C 132.792969 44.949219 128.84375 45.265625 124.898438 45.265625 C 124.632812 44.722656 124.398438 44.175781 124.183594 43.609375 C 131.085938 43.410156 137.964844 42.183594 144.394531 39.640625 C 147.519531 38.402344 150.628906 36.941406 153.300781 34.878906 C 155.734375 32.996094 157.582031 30.574219 158.902344 27.800781 C 160.304688 24.835938 161.144531 21.648438 161.710938 18.417969 C 162.332031 18.898438 162.941406 19.390625 163.53125 19.90625 Z M 160.742188 17.6875 C 159.769531 23.46875 157.949219 29.5 153.359375 33.4375 C 150.820312 35.609375 147.726562 37.121094 144.652344 38.375 C 141.574219 39.636719 138.378906 40.601562 135.121094 41.28125 C 131.394531 42.0625 127.605469 42.449219 123.800781 42.542969 C 123.378906 41.246094 123.070312 39.914062 122.898438 38.546875 C 125.207031 37.964844 127.460938 37.222656 129.613281 36.183594 C 133.449219 34.335938 136.761719 31.605469 140 28.875 C 145.5625 24.183594 151.25 19.636719 157.105469 15.316406 C 158.363281 16.046875 159.574219 16.835938 160.742188 17.6875 Z M 152.210938 17.636719 C 148.609375 20.402344 145.0625 23.238281 141.574219 26.148438 C 138.207031 28.953125 134.925781 31.925781 131.121094 34.148438 C 127.027344 36.546875 122.433594 37.679688 117.800781 38.511719 C 117.976562 37.816406 118.179688 37.136719 118.40625 36.460938 L 118.40625 36.453125 C 122.242188 35.675781 126.007812 34.441406 129.398438 32.445312 C 133.019531 30.300781 136.1875 27.480469 139.382812 24.765625 C 146.078125 19.070312 153.222656 13.941406 160.519531 9.046875 C 164.667969 6.269531 168.859375 3.566406 173.054688 0.875 C 173.40625 1.363281 173.765625 1.847656 174.117188 2.34375 C 166.625 7.164062 159.28125 12.222656 152.210938 17.636719 Z M 152.210938 17.636719 " fill-opacity="1" fill-rule="nonzero"/><g fill="#00418b" fill-opacity="1"><g transform="translate(169.705192, 153.864872)"><g><path d="M 5.21875 -4.734375 L 2.09375 -4.734375 L 2.09375 -3.5625 L 4.921875 -3.5625 L 4.921875 -2.375 L 2.09375 -2.375 L 2.09375 -1.1875 L 5.3125 -1.1875 L 5.3125 0 L 0.59375 0 L 0.59375 -5.921875 L 5.21875 -5.921875 Z M 5.21875 -4.734375 "/></g></g></g><g fill="#00418b" fill-opacity="1"><g transform="translate(176.253729, 153.864872)"><g><path d="M 0.59375 -5.921875 L 3.140625 -5.921875 C 4.066406 -5.921875 4.820312 -5.644531 5.40625 -5.09375 C 5.988281 -4.550781 6.28125 -3.835938 6.28125 -2.953125 C 6.28125 -2.078125 5.984375 -1.363281 5.390625 -0.8125 C 4.796875 -0.269531 4.023438 0 3.078125 0 L 0.59375 0 Z M 2.09375 -4.71875 L 2.09375 -1.203125 L 3.171875 -1.203125 C 3.628906 -1.203125 4.003906 -1.363281 4.296875 -1.6875 C 4.597656 -2.007812 4.75 -2.429688 4.75 -2.953125 C 4.75 -3.472656 4.59375 -3.894531 4.28125 -4.21875 C 3.976562 -4.550781 3.585938 -4.71875 3.109375 -4.71875 Z M 2.09375 -4.71875 "/></g></g></g><g fill="#00418b" fill-opacity="1"><g transform="translate(183.589111, 153.864872)"><g><path d="M 5.921875 -5.921875 L 5.921875 -2.484375 C 5.921875 -1.703125 5.675781 -1.082031 5.1875 -0.625 C 4.707031 -0.164062 4.050781 0.0625 3.21875 0.0625 C 2.382812 0.0625 1.71875 -0.164062 1.21875 -0.625 C 0.726562 -1.082031 0.484375 -1.703125 0.484375 -2.484375 L 0.484375 -5.921875 L 2 -5.921875 L 2 -2.484375 C 2 -2.085938 2.109375 -1.769531 2.328125 -1.53125 C 2.554688 -1.300781 2.859375 -1.1875 3.234375 -1.1875 C 3.585938 -1.1875 3.875 -1.300781 4.09375 -1.53125 C 4.3125 -1.769531 4.421875 -2.085938 4.421875 -2.484375 L 4.421875 -5.921875 Z M 5.921875 -5.921875 "/></g></g></g><g fill="#00418b" fill-opacity="1"><g transform="translate(190.848345, 153.864872)"><g><path d="M 3.359375 -5.96875 C 3.804688 -5.96875 4.238281 -5.875 4.65625 -5.6875 C 5.082031 -5.507812 5.445312 -5.269531 5.75 -4.96875 L 4.875 -3.9375 C 4.6875 -4.175781 4.457031 -4.363281 4.1875 -4.5 C 3.914062 -4.632812 3.648438 -4.703125 3.390625 -4.703125 C 2.921875 -4.703125 2.523438 -4.535156 2.203125 -4.203125 C 1.890625 -3.878906 1.734375 -3.476562 1.734375 -3 C 1.734375 -2.5 1.890625 -2.082031 2.203125 -1.75 C 2.523438 -1.414062 2.921875 -1.25 3.390625 -1.25 C 3.640625 -1.25 3.894531 -1.3125 4.15625 -1.4375 C 4.425781 -1.5625 4.664062 -1.726562 4.875 -1.9375 L 5.75 -1.015625 C 5.4375 -0.691406 5.0625 -0.429688 4.625 -0.234375 C 4.1875 -0.0351562 3.75 0.0625 3.3125 0.0625 C 2.425781 0.0625 1.6875 -0.222656 1.09375 -0.796875 C 0.5 -1.378906 0.203125 -2.101562 0.203125 -2.96875 C 0.203125 -3.820312 0.503906 -4.535156 1.109375 -5.109375 C 1.710938 -5.679688 2.460938 -5.96875 3.359375 -5.96875 Z M 3.359375 -5.96875 "/></g></g></g><g fill="#00418b" fill-opacity="1"><g transform="translate(197.549176, 153.864872)"><g><path d="M 4.515625 -1.09375 L 1.9375 -1.09375 L 1.5 0 L -0.046875 0 L 2.515625 -5.921875 L 4.0625 -5.921875 L 6.546875 0 L 4.9375 0 Z M 4.078125 -2.234375 L 3.234375 -4.421875 L 2.375 -2.234375 Z M 4.078125 -2.234375 "/></g></g></g><g fill="#00418b" fill-opacity="1"><g transform="translate(204.909937, 153.864872)"><g><path d="M 5.109375 -4.703125 L 3.328125 -4.703125 L 3.328125 0 L 1.828125 0 L 1.828125 -4.703125 L 0.0625 -4.703125 L 0.0625 -5.921875 L 5.109375 -5.921875 Z M 5.109375 -4.703125 "/></g></g></g><g fill="#00418b" fill-opacity="1"><g transform="translate(210.92545, 153.864872)"><g><path d="M 2.09375 0 L 0.59375 0 L 0.59375 -5.921875 L 2.09375 -5.921875 Z M 2.09375 0 "/></g></g></g><g fill="#00418b" fill-opacity="1"><g transform="translate(214.461994, 153.864872)"><g><path d="M 3.390625 -5.96875 C 4.316406 -5.96875 5.082031 -5.679688 5.6875 -5.109375 C 6.300781 -4.535156 6.609375 -3.820312 6.609375 -2.96875 C 6.609375 -2.101562 6.300781 -1.378906 5.6875 -0.796875 C 5.070312 -0.222656 4.304688 0.0625 3.390625 0.0625 C 2.484375 0.0625 1.722656 -0.222656 1.109375 -0.796875 C 0.503906 -1.378906 0.203125 -2.101562 0.203125 -2.96875 C 0.203125 -3.832031 0.503906 -4.546875 1.109375 -5.109375 C 1.722656 -5.679688 2.484375 -5.96875 3.390625 -5.96875 Z M 3.421875 -4.703125 C 2.953125 -4.703125 2.550781 -4.535156 2.21875 -4.203125 C 1.894531 -3.867188 1.734375 -3.453125 1.734375 -2.953125 C 1.734375 -2.460938 1.898438 -2.046875 2.234375 -1.703125 C 2.566406 -1.359375 2.957031 -1.1875 3.40625 -1.1875 C 3.863281 -1.1875 4.253906 -1.359375 4.578125 -1.703125 C 4.898438 -2.046875 5.0625 -2.460938 5.0625 -2.953125 C 5.0625 -3.453125 4.898438 -3.867188 4.578125 -4.203125 C 4.253906 -4.535156 3.867188 -4.703125 3.421875 -4.703125 Z M 3.421875 -4.703125 "/></g></g></g><g fill="#00418b" fill-opacity="1"><g transform="translate(222.118872, 153.864872)"><g><path d="M 6.046875 0 L 4.71875 0 L 2 -3.640625 L 2 0 L 0.59375 0 L 0.59375 -5.921875 L 1.921875 -5.921875 L 4.65625 -2.265625 L 4.65625 -5.921875 L 6.046875 -5.921875 Z M 6.046875 0 "/></g></g></g><g fill="#00418b" fill-opacity="1"><g transform="translate(163.37124, 142.774401)"><g><path d="M 1.234375 -12.296875 L 6.515625 -12.296875 C 8.441406 -12.296875 10.007812 -11.726562 11.21875 -10.59375 C 12.4375 -9.457031 13.046875 -7.972656 13.046875 -6.140625 C 13.046875 -4.328125 12.429688 -2.847656 11.203125 -1.703125 C 9.972656 -0.566406 8.367188 0 6.390625 0 L 1.234375 0 Z M 4.359375 -9.796875 L 4.359375 -2.5 L 6.578125 -2.5 C 7.546875 -2.5 8.335938 -2.832031 8.953125 -3.5 C 9.566406 -4.175781 9.875 -5.050781 9.875 -6.125 C 9.875 -7.207031 9.550781 -8.085938 8.90625 -8.765625 C 8.257812 -9.453125 7.441406 -9.796875 6.453125 -9.796875 Z M 4.359375 -9.796875 "/></g></g></g><g fill="#00418b" fill-opacity="1"><g transform="translate(176.832983, 142.774401)"><g><path d="M 4.359375 0 L 1.234375 0 L 1.234375 -12.296875 L 4.359375 -12.296875 Z M 4.359375 0 "/></g></g></g><g fill="#00418b" fill-opacity="1"><g transform="translate(182.414253, 142.774401)"><g><path d="M 9.390625 -6.25 L 12.09375 -6.25 L 12.09375 -1.453125 C 11.425781 -0.984375 10.617188 -0.597656 9.671875 -0.296875 C 8.734375 -0.00390625 7.835938 0.140625 6.984375 0.140625 C 5.117188 0.140625 3.554688 -0.457031 2.296875 -1.65625 C 1.046875 -2.851562 0.421875 -4.347656 0.421875 -6.140625 C 0.421875 -7.921875 1.0625 -9.410156 2.34375 -10.609375 C 3.632812 -11.804688 5.253906 -12.40625 7.203125 -12.40625 C 8.117188 -12.40625 9.023438 -12.238281 9.921875 -11.90625 C 10.828125 -11.582031 11.59375 -11.140625 12.21875 -10.578125 L 10.46875 -8.453125 C 10.019531 -8.859375 9.503906 -9.179688 8.921875 -9.421875 C 8.335938 -9.660156 7.757812 -9.78125 7.1875 -9.78125 C 6.175781 -9.78125 5.328125 -9.429688 4.640625 -8.734375 C 3.960938 -8.035156 3.625 -7.171875 3.625 -6.140625 C 3.625 -5.097656 3.96875 -4.222656 4.65625 -3.515625 C 5.34375 -2.816406 6.195312 -2.46875 7.21875 -2.46875 C 7.875 -2.46875 8.597656 -2.671875 9.390625 -3.078125 Z M 9.390625 -6.25 "/></g></g></g><g fill="#00418b" fill-opacity="1"><g transform="translate(195.454768, 142.774401)"><g><path d="M 4.359375 0 L 1.234375 0 L 1.234375 -12.296875 L 4.359375 -12.296875 Z M 4.359375 0 "/></g></g></g><g fill="#00418b" fill-opacity="1"><g transform="translate(201.036038, 142.774401)"><g><path d="M 10.625 -9.78125 L 6.921875 -9.78125 L 6.921875 0 L 3.796875 0 L 3.796875 -9.78125 L 0.125 -9.78125 L 0.125 -12.3125 L 10.625 -12.3125 Z M 10.625 -9.78125 "/></g></g></g><g fill="#00418b" fill-opacity="1"><g transform="translate(211.759799, 142.774401)"><g><path d="M 9.390625 -2.265625 L 4.015625 -2.265625 L 3.125 0 L -0.09375 0 L 5.21875 -12.296875 L 8.4375 -12.296875 L 13.609375 0 L 10.28125 0 Z M 8.484375 -4.640625 L 6.71875 -9.1875 L 4.9375 -4.640625 Z M 8.484375 -4.640625 "/></g></g></g><g fill="#00418b" fill-opacity="1"><g transform="translate(225.274195, 142.774401)"><g><path d="M 4.359375 -2.609375 L 9.578125 -2.609375 L 9.578125 0 L 1.234375 0 L 1.234375 -12.296875 L 4.359375 -12.296875 Z M 4.359375 -2.609375 "/></g></g></g></svg>