<svg xmlns="http://www.w3.org/2000/svg" xmlns:xlink="http://www.w3.org/1999/xlink" width="500" zoomAndPan="magnify" viewBox="0 0 375 374.999991" height="500" preserveAspectRatio="xMidYMid meet" version="1.0"><defs><g/><clipPath id="8bbdbc54b7"><path d="M 78.152344 116 L 175 116 L 175 280 L 78.152344 280 Z M 78.152344 116 " clip-rule="nonzero"/></clipPath><clipPath id="1acb4145f9"><path d="M 235 116 L 331.652344 116 L 331.652344 280 L 235 280 Z M 235 116 " clip-rule="nonzero"/></clipPath><clipPath id="14823feb8d"><path d="M 135 72.542969 L 275 72.542969 L 275 275 L 135 275 Z M 135 72.542969 " clip-rule="nonzero"/></clipPath><clipPath id="2ba9cecb05"><path d="M 8.371094 17.894531 L 180 17.894531 L 180 179.894531 L 8.371094 179.894531 Z M 8.371094 17.894531 " clip-rule="nonzero"/></clipPath></defs><g clip-path="url(#8bbdbc54b7)"><path fill="#145da0" d="M 92.515625 232.171875 L 92.480469 118.242188 C 88.089844 117.453125 83.359375 116.984375 78.167969 116.984375 L 78.167969 244.5625 C 78.167969 244.5625 135.65625 251.308594 174.34375 279.933594 C 156.464844 259.335938 129.765625 242.238281 92.515625 232.171875 " fill-opacity="1" fill-rule="nonzero"/></g><path fill="#56aeff" d="M 121.53125 207.25 L 121.441406 101.136719 C 116.96875 98.960938 112.113281 97.042969 106.789062 95.5 L 106.789062 223.078125 C 106.789062 223.078125 153.335938 235.457031 185.273438 271.894531 C 170.609375 246.882812 149.84375 221.589844 121.53125 207.25 " fill-opacity="1" fill-rule="nonzero"/><g clip-path="url(#1acb4145f9)"><path fill="#145da0" d="M 317.492188 232.171875 L 317.527344 118.242188 C 321.917969 117.453125 326.644531 116.984375 331.835938 116.984375 L 331.835938 244.5625 C 331.835938 244.5625 274.347656 251.308594 235.664062 279.933594 C 253.539062 259.335938 280.242188 242.238281 317.492188 232.171875 " fill-opacity="1" fill-rule="nonzero"/></g><path fill="#56aeff" d="M 288.476562 207.25 L 288.566406 101.136719 C 293.039062 98.960938 297.894531 97.042969 303.214844 95.5 L 303.214844 223.078125 C 303.214844 223.078125 256.671875 235.457031 224.734375 271.894531 C 239.398438 246.882812 260.160156 221.589844 288.476562 207.25 " fill-opacity="1" fill-rule="nonzero"/><g clip-path="url(#14823feb8d)"><path fill="#00418b" d="M 205.003906 144.5 C 205.003906 144.5 186.007812 104.625 135.75 72.546875 L 135.75 200.121094 C 135.75 200.121094 173.351562 224.9375 202.703125 274.414062 L 202.703125 207.347656 C 198.742188 206.460938 195.804688 202.152344 195.804688 198.457031 C 195.804688 194.066406 199.921875 189.28125 205.003906 189.28125 C 210.082031 189.28125 214.203125 194.066406 214.203125 198.457031 C 214.203125 202.152344 211.265625 206.460938 207.304688 207.347656 L 207.304688 274.414062 C 236.65625 224.9375 274.253906 200.121094 274.253906 200.121094 L 274.253906 72.546875 C 224 104.625 205.003906 144.5 205.003906 144.5 " fill-opacity="1" fill-rule="nonzero"/></g><g clip-path="url(#2ba9cecb05)"><path fill="#ffffff" d="M 49.84375 179.859375 C 48.816406 179.859375 47.855469 179.640625 47 179.191406 C 45.492188 178.414062 44.328125 177.140625 43.394531 176.097656 C 43.238281 175.910156 43.066406 175.738281 42.929688 175.585938 C 34.054688 166.121094 30.480469 152.261719 33.699219 140.03125 C 33.199219 136.222656 35.019531 132.617188 38.140625 130.722656 C 37.816406 127.257812 37.816406 123.417969 38.125 118.867188 C 38.265625 116.894531 38.4375 115.027344 38.625 113.242188 C 31.027344 114.34375 23.195312 115.480469 15.71875 117.390625 C 15.332031 117.484375 14.957031 117.53125 14.585938 117.53125 C 13.949219 117.53125 13.34375 117.40625 12.765625 117.140625 C 11.507812 116.644531 10.574219 115.574219 10.203125 114.234375 L 10.125 113.925781 C 9.488281 111.609375 8.835938 109.21875 8.585938 106.683594 C 8.414062 104.898438 9.285156 103.25 10.792969 102.425781 C 15.285156 99.007812 19.851562 95.511719 24.25 92.125 C 39.992188 80.035156 56.261719 67.539062 73.074219 56.226562 C 73.199219 54.269531 73.914062 52.46875 75.171875 50.898438 C 76.570312 49.140625 78.589844 48.179688 80.859375 48.179688 C 82.195312 48.179688 83.546875 48.519531 84.804688 49.15625 C 97.671875 42.273438 111.285156 37.96875 125.253906 33.820312 C 130.863281 32.15625 136.488281 30.042969 141.929688 28.023438 C 143.714844 27.355469 145.519531 26.6875 147.304688 26.035156 C 155.261719 23.113281 162.488281 20.566406 169.371094 18.234375 C 169.929688 18.003906 170.488281 17.894531 171.078125 17.894531 C 171.21875 17.894531 171.359375 17.894531 171.5 17.910156 C 171.964844 17.957031 172.417969 18.0625 172.835938 18.234375 C 173.722656 18.546875 174.5 19.121094 175.058594 19.898438 L 178.648438 24.871094 C 179.9375 26.640625 179.765625 28.972656 178.242188 30.496094 C 177.980469 30.804688 177.652344 31.070312 177.3125 31.289062 C 167.195312 37.800781 157.980469 43.96875 149.140625 50.183594 C 147.632812 51.253906 146.046875 52.375 144.398438 53.570312 C 150.597656 57.703125 156.285156 62.554688 161.335938 68.023438 C 162.191406 68.953125 162.609375 70.121094 162.550781 71.332031 C 162.550781 71.488281 162.535156 71.722656 162.488281 71.984375 C 160.964844 81.867188 158.773438 89.589844 155.570312 96.304688 C 152.167969 103.421875 147.320312 109.292969 141.136719 113.769531 C 133.800781 119.101562 125.269531 122.535156 119.488281 124.648438 C 105.316406 129.773438 89.71875 132.417969 73.089844 132.417969 C 71.910156 132.417969 70.695312 132.402344 69.5 132.371094 C 68.210938 132.339844 67.015625 131.78125 66.191406 130.847656 C 66.082031 130.722656 65.941406 130.566406 65.800781 130.382812 C 64.324219 128.300781 62.988281 126.078125 61.808594 123.761719 C 61.699219 123.574219 61.605469 123.390625 61.511719 123.1875 C 60.613281 121.351562 59.804688 119.457031 59.121094 117.53125 C 58.980469 117.21875 58.855469 116.910156 58.777344 116.566406 C 58.078125 114.5 57.519531 112.386719 57.070312 110.226562 C 55.871094 110.476562 54.597656 110.707031 53.246094 110.957031 C 52.59375 114.21875 52.128906 117.640625 51.847656 121.167969 C 51.597656 124.273438 51.382812 128.222656 51.722656 132.167969 C 53.386719 133.085938 54.738281 134.453125 55.59375 136.085938 C 56.449219 137.746094 56.757812 139.582031 56.507812 141.398438 C 58.359375 144.554688 60.984375 147.457031 63.550781 150.285156 L 63.578125 150.316406 C 64.203125 151 64.917969 151.683594 65.664062 152.414062 C 67.09375 153.800781 68.550781 155.226562 69.75 156.9375 C 70.527344 158.054688 70.726562 159.410156 70.371094 160.667969 C 69.375 166.898438 66.191406 172.242188 61.375 175.710938 C 58.746094 177.605469 55.59375 178.925781 52.28125 179.515625 L 51.988281 179.578125 C 51.382812 179.71875 50.667969 179.859375 49.84375 179.859375 Z M 49.84375 179.859375 " fill-opacity="1" fill-rule="nonzero"/></g><path fill="#00418b" d="M 175.757812 28.148438 C 175.679688 28.242188 175.585938 28.335938 175.476562 28.414062 C 165.921875 34.550781 156.472656 40.859375 147.195312 47.386719 C 144.226562 49.46875 141.292969 51.597656 138.371094 53.726562 C 145.96875 58.234375 152.851562 63.78125 158.851562 70.277344 C 159.113281 70.554688 159.191406 70.867188 159.160156 71.175781 C 159.160156 71.253906 159.160156 71.332031 159.144531 71.425781 C 157.917969 79.460938 156.023438 87.460938 152.511719 94.8125 C 149.417969 101.292969 144.957031 106.777344 139.132812 111.003906 C 132.871094 115.558594 125.566406 118.789062 118.308594 121.429688 C 102.738281 127.132812 86.113281 129.371094 69.578125 129 C 69.191406 128.984375 68.894531 128.828125 68.707031 128.578125 C 68.660156 128.53125 68.613281 128.46875 68.566406 128.40625 C 67.136719 126.386719 65.878906 124.273438 64.777344 122.082031 C 64.714844 121.988281 64.667969 121.898438 64.621094 121.789062 C 63.71875 119.953125 62.925781 118.074219 62.242188 116.164062 C 62.152344 116.023438 62.105469 115.851562 62.074219 115.695312 C 61.015625 112.621094 60.269531 109.433594 59.820312 106.171875 C 56.710938 106.886719 53.574219 107.492188 50.433594 108.035156 C 49.46875 112.277344 48.832031 116.597656 48.492188 120.902344 C 48.132812 125.394531 47.980469 130.039062 48.601562 134.53125 C 48.679688 134.546875 48.753906 134.5625 48.832031 134.578125 C 52.035156 135.554688 53.992188 138.710938 52.953125 141.910156 C 55.003906 145.875 58.125 149.324219 61.09375 152.601562 C 62.972656 154.667969 65.398438 156.597656 67 158.894531 C 67.214844 159.222656 67.230469 159.578125 67.09375 159.890625 C 66.332031 165.113281 63.71875 169.898438 59.398438 173.003906 C 57.132812 174.652344 54.441406 175.738281 51.691406 176.238281 C 50.589844 176.4375 49.515625 176.703125 48.523438 176.207031 C 47.355469 175.601562 46.253906 174.25 45.367188 173.300781 C 37.273438 164.660156 33.839844 151.640625 37.148438 140.21875 C 37.117188 140.125 37.101562 140.03125 37.085938 139.921875 C 36.511719 136.691406 38.59375 133.566406 41.792969 132.882812 C 41.109375 128.34375 41.171875 123.667969 41.484375 119.132812 C 41.699219 115.960938 42.027344 112.636719 42.554688 109.292969 C 33.292969 110.660156 23.984375 111.84375 14.878906 114.160156 C 14.585938 114.234375 14.320312 114.191406 14.101562 114.082031 C 13.808594 113.972656 13.558594 113.722656 13.433594 113.335938 C 12.8125 111.050781 12.160156 108.71875 11.929688 106.375 C 11.882812 105.828125 12.160156 105.488281 12.535156 105.332031 C 12.535156 105.332031 12.550781 105.332031 12.550781 105.316406 C 33.667969 89.28125 54.425781 72.730469 76.492188 58 C 76.230469 56.289062 76.554688 54.550781 77.78125 53.027344 C 79.492188 50.898438 82.367188 51.316406 84.339844 52.855469 C 84.449219 52.933594 84.558594 53.027344 84.652344 53.121094 C 84.730469 53.042969 84.804688 52.980469 84.914062 52.917969 C 97.90625 45.722656 112.03125 41.25 126.1875 37.039062 C 133.738281 34.800781 141.058594 31.878906 148.4375 29.175781 C 155.789062 26.488281 163.15625 23.859375 170.566406 21.359375 C 170.769531 21.265625 170.972656 21.21875 171.15625 21.25 C 171.3125 21.265625 171.46875 21.3125 171.578125 21.375 C 171.839844 21.4375 172.089844 21.574219 172.277344 21.839844 C 173.472656 23.503906 174.667969 25.148438 175.867188 26.8125 C 176.269531 27.324219 176.113281 27.824219 175.757812 28.148438 Z M 175.757812 28.148438 " fill-opacity="1" fill-rule="nonzero"/><path fill="#56aeff" d="M 175.882812 26.796875 C 174.683594 25.132812 173.488281 23.488281 172.292969 21.824219 C 172.105469 21.558594 171.855469 21.40625 171.59375 21.359375 C 171.46875 21.28125 171.328125 21.234375 171.171875 21.234375 C 170.988281 21.203125 170.785156 21.25 170.582031 21.34375 C 163.171875 23.84375 155.804688 26.472656 148.453125 29.160156 C 141.074219 31.863281 133.738281 34.785156 126.203125 37.023438 C 112.046875 41.234375 97.921875 45.722656 84.929688 52.902344 C 84.820312 52.964844 84.746094 53.027344 84.667969 53.105469 C 84.558594 53.011719 84.464844 52.917969 84.355469 52.839844 C 82.382812 51.300781 79.523438 50.867188 77.796875 53.011719 C 76.570312 54.535156 76.246094 56.273438 76.507812 57.984375 C 54.441406 72.714844 33.683594 89.265625 12.566406 105.300781 C 12.566406 105.300781 12.550781 105.300781 12.550781 105.316406 C 12.175781 105.457031 11.882812 105.796875 11.941406 106.359375 C 12.175781 108.71875 12.828125 111.050781 13.449219 113.320312 C 13.558594 113.722656 13.808594 113.957031 14.117188 114.066406 C 14.335938 114.175781 14.601562 114.203125 14.894531 114.144531 C 23.984375 111.828125 33.292969 110.648438 42.570312 109.277344 C 42.058594 112.621094 41.730469 115.945312 41.5 119.117188 C 41.1875 123.652344 41.125 128.332031 41.808594 132.867188 C 38.625 133.550781 36.527344 136.675781 37.101562 139.90625 C 37.117188 140 37.148438 140.109375 37.164062 140.203125 C 33.855469 151.625 37.289062 164.644531 45.382812 173.285156 C 46.269531 174.234375 47.355469 175.585938 48.539062 176.191406 C 49.53125 176.703125 50.605469 176.425781 51.707031 176.222656 C 54.457031 175.722656 57.148438 174.636719 59.414062 172.988281 C 63.734375 169.882812 66.332031 165.097656 67.105469 159.875 C 67.246094 159.5625 67.230469 159.207031 67.015625 158.878906 C 65.414062 156.582031 62.972656 154.652344 61.109375 152.585938 C 58.140625 149.308594 55.019531 145.859375 52.964844 141.894531 C 54.007812 138.695312 52.050781 135.539062 48.847656 134.5625 C 48.769531 134.53125 48.695312 134.53125 48.617188 134.515625 C 47.996094 130.007812 48.148438 125.363281 48.507812 120.886719 C 48.847656 116.566406 49.46875 112.246094 50.449219 108.019531 C 53.589844 107.476562 56.726562 106.886719 59.835938 106.15625 C 60.285156 109.417969 61.03125 112.605469 62.089844 115.679688 C 62.121094 115.851562 62.164062 116.007812 62.257812 116.148438 C 62.925781 118.074219 63.71875 119.953125 64.636719 121.773438 C 64.667969 121.882812 64.730469 121.972656 64.792969 122.066406 C 65.894531 124.257812 67.152344 126.371094 68.582031 128.390625 C 68.628906 128.453125 68.675781 128.515625 68.722656 128.5625 C 68.910156 128.796875 69.191406 128.96875 69.59375 128.984375 C 86.128906 129.355469 102.769531 127.117188 118.339844 121.414062 C 125.597656 118.757812 132.882812 115.542969 139.164062 110.988281 C 144.988281 106.761719 149.433594 101.277344 152.542969 94.796875 C 156.054688 87.429688 157.933594 79.429688 159.175781 71.410156 C 159.191406 71.332031 159.191406 71.238281 159.191406 71.160156 C 159.222656 70.867188 159.128906 70.539062 158.882812 70.261719 C 152.882812 63.78125 146 58.21875 138.402344 53.710938 C 141.324219 51.566406 144.257812 49.453125 147.226562 47.371094 C 156.519531 40.84375 165.96875 34.535156 175.507812 28.398438 C 175.632812 28.320312 175.726562 28.226562 175.789062 28.132812 C 176.113281 27.824219 176.269531 27.324219 175.882812 26.796875 Z M 42.976562 106.886719 C 42.898438 106.886719 42.835938 106.886719 42.757812 106.902344 C 33.605469 108.269531 24.40625 109.402344 15.410156 111.59375 C 15.003906 110.164062 14.617188 108.703125 14.398438 107.242188 C 24.09375 104.882812 34.039062 103.949219 43.90625 102.519531 C 43.550781 103.964844 43.238281 105.425781 42.976562 106.886719 Z M 79.121094 55.4375 C 80.425781 52.609375 83.285156 54.613281 84.433594 56.492188 C 85.382812 58.03125 85.785156 59.847656 86.191406 61.589844 C 85.878906 62.753906 84.820312 63.5625 83.59375 63.46875 C 83.515625 63.453125 83.453125 63.46875 83.390625 63.46875 C 80.65625 62.210938 77.691406 58.542969 79.121094 55.4375 Z M 152.308594 67.042969 C 153.847656 68.472656 155.324219 69.949219 156.769531 71.488281 C 154.65625 84.851562 150.554688 98.851562 139.628906 107.679688 C 133.554688 112.589844 126.15625 115.960938 118.882812 118.710938 C 111.613281 121.460938 104.058594 123.480469 96.398438 124.789062 C 87.742188 126.277344 78.964844 126.808594 70.183594 126.652344 C 69.265625 125.316406 68.429688 123.949219 67.636719 122.535156 C 83.082031 122.410156 98.527344 119.96875 113.011719 114.484375 C 120.21875 111.75 127.445312 108.472656 133.597656 103.777344 C 139.070312 99.597656 143.234375 94.222656 146.15625 88.007812 C 149.277344 81.386719 151.097656 74.253906 152.308594 67.042969 Z M 144.195312 60.378906 C 142.082031 72.917969 138.136719 86 128.175781 94.546875 C 122.675781 99.257812 115.960938 102.535156 109.296875 105.253906 C 102.613281 107.988281 95.683594 110.085938 88.613281 111.5625 C 80.535156 113.257812 72.3125 114.097656 64.0625 114.296875 C 63.144531 111.484375 62.476562 108.59375 62.105469 105.628906 C 67.105469 104.367188 72.003906 102.753906 76.664062 100.5 C 84.992188 96.492188 92.171875 90.570312 99.195312 84.648438 C 111.269531 74.472656 123.609375 64.605469 136.304688 55.234375 C 139.039062 56.820312 141.664062 58.527344 144.195312 60.378906 Z M 125.691406 60.269531 C 117.875 66.265625 110.183594 72.421875 102.613281 78.730469 C 95.3125 84.820312 88.195312 91.269531 79.941406 96.085938 C 71.054688 101.292969 61.09375 103.746094 51.039062 105.550781 C 51.429688 104.042969 51.863281 102.566406 52.359375 101.105469 L 52.359375 101.089844 C 60.675781 99.394531 68.847656 96.722656 76.199219 92.386719 C 84.0625 87.742188 90.929688 81.621094 97.859375 75.730469 C 112.386719 63.375 127.882812 52.25 143.714844 41.636719 C 152.710938 35.609375 161.804688 29.75 170.910156 23.90625 C 171.671875 24.964844 172.449219 26.019531 173.207031 27.09375 C 156.953125 37.550781 141.027344 48.519531 125.691406 60.269531 Z M 125.691406 60.269531 " fill-opacity="1" fill-rule="nonzero"/><path fill="#00418b" d="M 175.882812 26.796875 C 174.683594 25.132812 173.488281 23.488281 172.292969 21.824219 C 172.105469 21.558594 171.855469 21.40625 171.59375 21.359375 C 171.46875 21.28125 171.328125 21.234375 171.171875 21.234375 C 170.988281 21.203125 170.785156 21.25 170.582031 21.34375 C 163.171875 23.84375 155.804688 26.472656 148.453125 29.160156 C 141.074219 31.863281 133.738281 34.785156 126.203125 37.023438 C 112.046875 41.234375 97.921875 45.722656 84.929688 52.902344 C 84.820312 52.964844 84.746094 53.027344 84.667969 53.105469 C 84.558594 53.011719 84.464844 52.917969 84.355469 52.839844 C 82.382812 51.300781 79.523438 50.867188 77.796875 53.011719 C 76.570312 54.535156 76.246094 56.273438 76.507812 57.984375 C 54.441406 72.714844 33.683594 89.265625 12.566406 105.300781 C 12.566406 105.300781 12.550781 105.300781 12.550781 105.316406 C 12.175781 105.457031 11.882812 105.796875 11.941406 106.359375 C 12.175781 108.71875 12.828125 111.050781 13.449219 113.320312 C 13.558594 113.722656 13.808594 113.957031 14.117188 114.066406 C 14.335938 114.175781 14.601562 114.203125 14.894531 114.144531 C 23.984375 111.828125 33.292969 110.648438 42.570312 109.277344 C 42.058594 112.621094 41.730469 115.945312 41.5 119.117188 C 41.1875 123.652344 41.125 128.332031 41.808594 132.867188 C 38.625 133.550781 36.527344 136.675781 37.101562 139.90625 C 37.117188 140 37.148438 140.109375 37.164062 140.203125 C 33.855469 151.625 37.289062 164.644531 45.382812 173.285156 C 46.269531 174.234375 47.355469 175.585938 48.539062 176.191406 C 49.53125 176.703125 50.605469 176.425781 51.707031 176.222656 C 54.457031 175.722656 57.148438 174.636719 59.414062 172.988281 C 63.734375 169.882812 66.332031 165.097656 67.105469 159.875 C 67.246094 159.5625 67.230469 159.207031 67.015625 158.878906 C 65.414062 156.582031 62.972656 154.652344 61.109375 152.585938 C 58.140625 149.308594 55.019531 145.859375 52.964844 141.894531 C 54.007812 138.695312 52.050781 135.539062 48.847656 134.5625 C 48.769531 134.53125 48.695312 134.53125 48.617188 134.515625 C 47.996094 130.007812 48.148438 125.363281 48.507812 120.886719 C 48.847656 116.566406 49.46875 112.246094 50.449219 108.019531 C 53.589844 107.476562 56.726562 106.886719 59.835938 106.15625 C 60.285156 109.417969 61.03125 112.605469 62.089844 115.679688 C 62.121094 115.851562 62.164062 116.007812 62.257812 116.148438 C 62.925781 118.074219 63.71875 119.953125 64.636719 121.773438 C 64.667969 121.882812 64.730469 121.972656 64.792969 122.066406 C 65.894531 124.257812 67.152344 126.371094 68.582031 128.390625 C 68.628906 128.453125 68.675781 128.515625 68.722656 128.5625 C 68.910156 128.796875 69.191406 128.96875 69.59375 128.984375 C 86.128906 129.355469 102.769531 127.117188 118.339844 121.414062 C 125.597656 118.757812 132.882812 115.542969 139.164062 110.988281 C 144.988281 106.761719 149.433594 101.277344 152.542969 94.796875 C 156.054688 87.429688 157.933594 79.429688 159.175781 71.410156 C 159.191406 71.332031 159.191406 71.238281 159.191406 71.160156 C 159.222656 70.867188 159.128906 70.539062 158.882812 70.261719 C 152.882812 63.78125 146 58.21875 138.402344 53.710938 C 141.324219 51.566406 144.257812 49.453125 147.226562 47.371094 C 156.519531 40.84375 165.96875 34.535156 175.507812 28.398438 C 175.632812 28.320312 175.726562 28.226562 175.789062 28.132812 C 176.113281 27.824219 176.269531 27.324219 175.882812 26.796875 Z M 79.121094 55.4375 C 80.425781 52.609375 83.285156 54.613281 84.433594 56.492188 C 85.382812 58.03125 85.785156 59.847656 86.191406 61.589844 C 85.878906 62.753906 84.820312 63.5625 83.59375 63.46875 C 83.515625 63.453125 83.453125 63.46875 83.390625 63.46875 C 80.65625 62.210938 77.691406 58.542969 79.121094 55.4375 Z M 15.410156 111.59375 C 15.003906 110.164062 14.617188 108.703125 14.398438 107.242188 C 24.09375 104.882812 34.039062 103.949219 43.90625 102.519531 C 43.550781 103.964844 43.238281 105.425781 42.960938 106.886719 C 42.882812 106.886719 42.820312 106.886719 42.742188 106.902344 C 33.605469 108.253906 24.40625 109.386719 15.410156 111.59375 Z M 51.539062 144.210938 C 53.480469 147.566406 56.152344 150.566406 58.699219 153.425781 C 60.113281 155.027344 61.574219 156.582031 63.050781 158.117188 C 63.503906 158.585938 63.96875 159.050781 64.417969 159.515625 C 64.464844 159.5625 64.605469 159.71875 64.746094 159.875 C 64.277344 162.53125 63.332031 165.050781 61.839844 167.238281 C 61.792969 167.164062 61.730469 167.070312 61.652344 166.992188 C 56.929688 162.175781 53.664062 156.316406 52.035156 149.773438 C 51.660156 148.3125 49.410156 148.933594 49.78125 150.394531 C 51.507812 157.3125 55.019531 163.558594 60.007812 168.652344 C 60.160156 168.808594 60.316406 168.902344 60.488281 168.949219 C 59.820312 169.679688 59.074219 170.363281 58.25 170.96875 C 57.253906 171.699219 56.167969 172.304688 55.050781 172.789062 C 52.546875 170.285156 50.480469 167.472656 48.800781 164.367188 C 48.085938 163.042969 46.066406 164.226562 46.78125 165.546875 C 48.367188 168.5 50.324219 171.203125 52.609375 173.625 C 52.328125 173.703125 52.050781 173.765625 51.753906 173.828125 C 49.875 174.234375 49.546875 174.046875 48.226562 172.789062 C 47.339844 171.949219 46.519531 171.0625 45.757812 170.113281 C 39.742188 162.796875 37.039062 152.710938 38.824219 143.402344 C 39.867188 144.585938 41.25 145.4375 42.789062 145.890625 C 42.554688 147.910156 42.523438 149.914062 42.710938 151.933594 C 42.851562 153.425781 45.195312 153.441406 45.058594 151.933594 C 44.886719 150.039062 44.902344 148.15625 45.105469 146.277344 C 47.371094 146.402344 49.90625 145.8125 51.539062 144.210938 Z M 49.269531 139.019531 C 49.363281 138.804688 49.394531 138.554688 49.316406 138.273438 C 49.238281 137.917969 49.144531 137.558594 49.066406 137.203125 C 50.558594 138.058594 51.226562 139.734375 50.683594 141.242188 C 50.605469 141.367188 50.542969 141.492188 50.511719 141.632812 C 50.308594 142.035156 50 142.410156 49.609375 142.75 C 48.148438 143.992188 45.710938 144.195312 43.875 143.761719 C 41.949219 143.308594 40.179688 142.050781 39.554688 140.09375 C 38.839844 137.871094 40.054688 135.726562 42.230469 135.136719 C 42.308594 135.476562 42.382812 135.804688 42.460938 136.144531 C 43.160156 138.742188 45.835938 139.441406 48.179688 139.71875 C 48.800781 139.84375 49.160156 139.472656 49.269531 139.019531 Z M 49.5625 102.164062 C 47.761719 108.144531 46.6875 114.375 46.175781 120.589844 C 45.726562 126.046875 45.601562 131.734375 46.65625 137.15625 C 45.773438 136.90625 44.949219 136.472656 44.699219 135.570312 C 42.292969 125.75 43.691406 114.5 45.957031 104.789062 C 47.09375 99.894531 48.617188 94.9375 51.179688 90.585938 C 54.273438 85.347656 59.523438 81.277344 64.449219 77.859375 C 70.710938 73.507812 77.488281 69.933594 84.015625 65.988281 C 84.136719 65.957031 84.246094 65.894531 84.339844 65.800781 C 86.34375 65.582031 88.226562 63.9375 88.503906 61.914062 C 88.503906 61.882812 88.503906 61.855469 88.519531 61.824219 C 88.550781 61.652344 88.550781 61.480469 88.503906 61.292969 C 88.503906 61.261719 88.488281 61.230469 88.488281 61.214844 C 89.15625 61.480469 89.792969 61.882812 90.277344 62.429688 C 91.269531 63.546875 90.554688 64.652344 89.609375 65.582031 C 88.210938 66.949219 86.421875 67.882812 84.761719 68.847656 C 81.277344 70.867188 77.75 72.777344 74.285156 74.796875 C 67.714844 78.621094 61.140625 82.910156 56.167969 88.75 C 52.921875 92.574219 51.007812 97.40625 49.5625 102.164062 Z M 156.769531 71.488281 C 154.65625 84.851562 150.554688 98.851562 139.628906 107.679688 C 133.554688 112.589844 126.15625 115.960938 118.882812 118.710938 C 111.613281 121.460938 104.058594 123.480469 96.398438 124.789062 C 87.742188 126.277344 78.964844 126.808594 70.183594 126.652344 C 69.265625 125.316406 68.429688 123.949219 67.636719 122.535156 C 83.082031 122.410156 98.527344 119.96875 113.011719 114.484375 C 120.21875 111.75 127.445312 108.472656 133.597656 103.777344 C 139.070312 99.597656 143.234375 94.222656 146.15625 88.007812 C 149.261719 81.371094 151.082031 74.238281 152.292969 67.042969 C 153.847656 68.472656 155.324219 69.949219 156.769531 71.488281 Z M 150.242188 65.195312 C 148.160156 78.199219 144.195312 91.90625 133.738281 100.6875 C 127.972656 105.519531 120.917969 108.859375 113.972656 111.609375 C 106.871094 114.421875 99.507812 116.519531 92 117.933594 C 83.5625 119.519531 75 120.203125 66.4375 120.203125 C 65.863281 119.023438 65.351562 117.839844 64.886719 116.613281 C 79.863281 116.179688 94.78125 113.519531 108.738281 108.003906 C 115.511719 105.316406 122.257812 102.148438 128.050781 97.671875 C 133.335938 93.585938 137.34375 88.332031 140.203125 82.320312 C 143.25 75.886719 145.066406 68.96875 146.296875 61.960938 C 147.648438 63.003906 148.96875 64.074219 150.242188 65.195312 Z M 144.195312 60.378906 C 142.082031 72.917969 138.136719 86 128.175781 94.546875 C 122.675781 99.257812 115.960938 102.535156 109.296875 105.253906 C 102.613281 107.988281 95.683594 110.085938 88.613281 111.5625 C 80.535156 113.257812 72.3125 114.097656 64.0625 114.296875 C 63.144531 111.484375 62.476562 108.59375 62.105469 105.628906 C 67.105469 104.367188 72.003906 102.753906 76.664062 100.5 C 84.992188 96.492188 92.171875 90.570312 99.195312 84.648438 C 111.269531 74.472656 123.609375 64.605469 136.304688 55.234375 C 139.039062 56.820312 141.664062 58.527344 144.195312 60.378906 Z M 125.691406 60.269531 C 117.875 66.265625 110.183594 72.421875 102.613281 78.730469 C 95.3125 84.820312 88.195312 91.269531 79.941406 96.085938 C 71.054688 101.292969 61.09375 103.746094 51.039062 105.550781 C 51.429688 104.042969 51.863281 102.566406 52.359375 101.105469 L 52.359375 101.089844 C 60.675781 99.394531 68.847656 96.722656 76.199219 92.386719 C 84.0625 87.742188 90.929688 81.621094 97.859375 75.730469 C 112.386719 63.375 127.882812 52.25 143.714844 41.636719 C 152.710938 35.609375 161.804688 29.75 170.910156 23.90625 C 171.671875 24.964844 172.449219 26.019531 173.207031 27.09375 C 156.953125 37.550781 141.027344 48.519531 125.691406 60.269531 Z M 125.691406 60.269531 " fill-opacity="1" fill-rule="nonzero"/><path fill="#000000" d="M 175.882812 26.796875 C 174.683594 25.132812 173.488281 23.488281 172.292969 21.824219 C 172.105469 21.558594 171.855469 21.40625 171.59375 21.359375 C 171.46875 21.28125 171.328125 21.234375 171.171875 21.234375 C 170.988281 21.203125 170.785156 21.25 170.582031 21.34375 C 163.171875 23.84375 155.804688 26.472656 148.453125 29.160156 C 141.074219 31.863281 133.738281 34.785156 126.203125 37.023438 C 112.046875 41.234375 97.921875 45.722656 84.929688 52.902344 C 84.820312 52.964844 84.746094 53.027344 84.667969 53.105469 C 84.558594 53.011719 84.464844 52.917969 84.355469 52.839844 C 82.382812 51.300781 79.523438 50.867188 77.796875 53.011719 C 76.570312 54.535156 76.246094 56.273438 76.507812 57.984375 C 54.441406 72.714844 33.683594 89.265625 12.566406 105.300781 C 12.566406 105.300781 12.550781 105.300781 12.550781 105.316406 C 12.175781 105.457031 11.882812 105.796875 11.941406 106.359375 C 12.175781 108.71875 12.828125 111.050781 13.449219 113.320312 C 13.558594 113.722656 13.808594 113.957031 14.117188 114.066406 C 14.335938 114.175781 14.601562 114.203125 14.894531 114.144531 C 23.984375 111.828125 33.292969 110.648438 42.570312 109.277344 C 42.058594 112.621094 41.730469 115.945312 41.5 119.117188 C 41.1875 123.652344 41.125 128.332031 41.808594 132.867188 C 38.625 133.550781 36.527344 136.675781 37.101562 139.90625 C 37.117188 140 37.148438 140.109375 37.164062 140.203125 C 33.855469 151.625 37.289062 164.644531 45.382812 173.285156 C 46.269531 174.234375 47.355469 175.585938 48.539062 176.191406 C 49.53125 176.703125 50.605469 176.425781 51.707031 176.222656 C 54.457031 175.722656 57.148438 174.636719 59.414062 172.988281 C 63.734375 169.882812 66.332031 165.097656 67.105469 159.875 C 67.246094 159.5625 67.230469 159.207031 67.015625 158.878906 C 65.414062 156.582031 62.972656 154.652344 61.109375 152.585938 C 58.140625 149.308594 55.019531 145.859375 52.964844 141.894531 C 54.007812 138.695312 52.050781 135.539062 48.847656 134.5625 C 48.769531 134.53125 48.695312 134.53125 48.617188 134.515625 C 47.996094 130.007812 48.148438 125.363281 48.507812 120.886719 C 48.847656 116.566406 49.46875 112.246094 50.449219 108.019531 C 53.589844 107.476562 56.726562 106.886719 59.835938 106.15625 C 60.285156 109.417969 61.03125 112.605469 62.089844 115.679688 C 62.121094 115.851562 62.164062 116.007812 62.257812 116.148438 C 62.925781 118.074219 63.71875 119.953125 64.636719 121.773438 C 64.667969 121.882812 64.730469 121.972656 64.792969 122.066406 C 65.894531 124.257812 67.152344 126.371094 68.582031 128.390625 C 68.628906 128.453125 68.675781 128.515625 68.722656 128.5625 C 68.910156 128.796875 69.191406 128.96875 69.59375 128.984375 C 86.128906 129.355469 102.769531 127.117188 118.339844 121.414062 C 125.597656 118.757812 132.882812 115.542969 139.164062 110.988281 C 144.988281 106.761719 149.433594 101.277344 152.542969 94.796875 C 156.054688 87.429688 157.933594 79.429688 159.175781 71.410156 C 159.191406 71.332031 159.191406 71.238281 159.191406 71.160156 C 159.222656 70.867188 159.128906 70.539062 158.882812 70.261719 C 152.882812 63.78125 146 58.21875 138.402344 53.710938 C 141.324219 51.566406 144.257812 49.453125 147.226562 47.371094 C 156.519531 40.84375 165.96875 34.535156 175.507812 28.398438 C 175.632812 28.320312 175.726562 28.226562 175.789062 28.132812 C 176.113281 27.824219 176.269531 27.324219 175.882812 26.796875 Z M 127.648438 39.042969 C 134.90625 36.851562 141.960938 34.023438 149.078125 31.429688 C 153.441406 29.828125 157.824219 28.257812 162.222656 26.71875 C 148.9375 35.28125 135.726562 43.984375 122.925781 53.230469 C 115.558594 58.558594 108.316406 64.058594 101.277344 69.839844 C 94.019531 75.808594 87.121094 82.289062 79.351562 87.601562 C 71.441406 93.023438 62.664062 96.429688 53.355469 98.496094 C 55.453125 93.398438 58.421875 89.28125 62.789062 85.503906 C 69.128906 80.019531 76.679688 76.164062 83.9375 72.03125 C 86.875 70.351562 91.535156 68.425781 92.933594 65.039062 C 94.191406 61.976562 91.148438 59.335938 88.394531 58.699219 C 88.226562 58.652344 88.054688 58.652344 87.898438 58.683594 C 87.496094 57.332031 86.980469 56.027344 86.234375 54.875 C 99.257812 47.667969 113.429688 43.332031 127.648438 39.042969 Z M 79.121094 55.4375 C 80.425781 52.609375 83.285156 54.613281 84.433594 56.492188 C 85.382812 58.03125 85.785156 59.847656 86.191406 61.589844 C 85.878906 62.753906 84.820312 63.5625 83.59375 63.46875 C 83.515625 63.453125 83.453125 63.46875 83.390625 63.46875 C 80.65625 62.210938 77.691406 58.542969 79.121094 55.4375 Z M 77.238281 60.300781 C 78.109375 62.148438 79.585938 63.8125 81.246094 64.914062 C 75.5625 68.285156 69.734375 71.472656 64.234375 75.171875 C 59.042969 78.683594 53.636719 82.769531 50.046875 88.007812 C 47.589844 91.578125 45.835938 95.714844 44.558594 100.0625 C 35.734375 101.386719 26.8125 102.238281 18.082031 104.011719 C 37.566406 89.125 56.851562 73.941406 77.238281 60.300781 Z M 15.410156 111.59375 C 15.003906 110.164062 14.617188 108.703125 14.398438 107.242188 C 24.09375 104.882812 34.039062 103.949219 43.90625 102.519531 C 43.550781 103.964844 43.238281 105.425781 42.960938 106.886719 C 42.882812 106.886719 42.820312 106.886719 42.742188 106.902344 C 33.605469 108.253906 24.40625 109.386719 15.410156 111.59375 Z M 51.539062 144.210938 C 53.480469 147.566406 56.152344 150.566406 58.699219 153.425781 C 60.113281 155.027344 61.574219 156.582031 63.050781 158.117188 C 63.503906 158.585938 63.96875 159.050781 64.417969 159.515625 C 64.464844 159.5625 64.605469 159.71875 64.746094 159.875 C 64.277344 162.53125 63.332031 165.050781 61.839844 167.238281 C 61.792969 167.164062 61.730469 167.070312 61.652344 166.992188 C 56.929688 162.175781 53.664062 156.316406 52.035156 149.773438 C 51.660156 148.3125 49.410156 148.933594 49.78125 150.394531 C 51.507812 157.3125 55.019531 163.558594 60.007812 168.652344 C 60.160156 168.808594 60.316406 168.902344 60.488281 168.949219 C 59.820312 169.679688 59.074219 170.363281 58.25 170.96875 C 57.253906 171.699219 56.167969 172.304688 55.050781 172.789062 C 52.546875 170.285156 50.480469 167.472656 48.800781 164.367188 C 48.085938 163.042969 46.066406 164.226562 46.78125 165.546875 C 48.367188 168.5 50.324219 171.203125 52.609375 173.625 C 52.328125 173.703125 52.050781 173.765625 51.753906 173.828125 C 49.875 174.234375 49.546875 174.046875 48.226562 172.789062 C 47.339844 171.949219 46.519531 171.0625 45.757812 170.113281 C 39.742188 162.796875 37.039062 152.710938 38.824219 143.402344 C 39.867188 144.585938 41.25 145.4375 42.789062 145.890625 C 42.554688 147.910156 42.523438 149.914062 42.710938 151.933594 C 42.851562 153.425781 45.195312 153.441406 45.058594 151.933594 C 44.886719 150.039062 44.902344 148.15625 45.105469 146.277344 C 47.371094 146.402344 49.90625 145.8125 51.539062 144.210938 Z M 49.269531 139.019531 C 49.363281 138.804688 49.394531 138.554688 49.316406 138.273438 C 49.238281 137.917969 49.144531 137.558594 49.066406 137.203125 C 50.558594 138.058594 51.226562 139.734375 50.683594 141.242188 C 50.605469 141.367188 50.542969 141.492188 50.511719 141.632812 C 50.308594 142.035156 50 142.410156 49.609375 142.75 C 48.148438 143.992188 45.710938 144.195312 43.875 143.761719 C 41.949219 143.308594 40.179688 142.050781 39.554688 140.09375 C 38.839844 137.871094 40.054688 135.726562 42.230469 135.136719 C 42.308594 135.476562 42.382812 135.804688 42.460938 136.144531 C 43.160156 138.742188 45.835938 139.441406 48.179688 139.71875 C 48.800781 139.84375 49.160156 139.472656 49.269531 139.019531 Z M 49.5625 102.164062 C 47.761719 108.144531 46.6875 114.375 46.175781 120.589844 C 45.726562 126.046875 45.601562 131.734375 46.65625 137.15625 C 45.773438 136.90625 44.949219 136.472656 44.699219 135.570312 C 42.292969 125.75 43.691406 114.5 45.957031 104.789062 C 47.09375 99.894531 48.617188 94.9375 51.179688 90.585938 C 54.273438 85.347656 59.523438 81.277344 64.449219 77.859375 C 70.710938 73.507812 77.488281 69.933594 84.015625 65.988281 C 84.136719 65.957031 84.246094 65.894531 84.339844 65.800781 C 86.34375 65.582031 88.226562 63.9375 88.503906 61.914062 C 88.503906 61.882812 88.503906 61.855469 88.519531 61.824219 C 88.550781 61.652344 88.550781 61.480469 88.503906 61.292969 C 88.503906 61.261719 88.488281 61.230469 88.488281 61.214844 C 89.15625 61.480469 89.792969 61.882812 90.277344 62.429688 C 91.269531 63.546875 90.554688 64.652344 89.609375 65.582031 C 88.210938 66.949219 86.421875 67.882812 84.761719 68.847656 C 81.277344 70.867188 77.75 72.777344 74.285156 74.796875 C 67.714844 78.621094 61.140625 82.910156 56.167969 88.75 C 52.921875 92.574219 51.007812 97.40625 49.5625 102.164062 Z M 156.769531 71.488281 C 154.65625 84.851562 150.554688 98.851562 139.628906 107.679688 C 133.554688 112.589844 126.15625 115.960938 118.882812 118.710938 C 111.613281 121.460938 104.058594 123.480469 96.398438 124.789062 C 87.742188 126.277344 78.964844 126.808594 70.183594 126.652344 C 69.265625 125.316406 68.429688 123.949219 67.636719 122.535156 C 83.082031 122.410156 98.527344 119.96875 113.011719 114.484375 C 120.21875 111.75 127.445312 108.472656 133.597656 103.777344 C 139.070312 99.597656 143.234375 94.222656 146.15625 88.007812 C 149.261719 81.371094 151.082031 74.238281 152.292969 67.042969 C 153.847656 68.472656 155.324219 69.949219 156.769531 71.488281 Z M 150.242188 65.195312 C 148.160156 78.199219 144.195312 91.90625 133.738281 100.6875 C 127.972656 105.519531 120.917969 108.859375 113.972656 111.609375 C 106.871094 114.421875 99.507812 116.519531 92 117.933594 C 83.5625 119.519531 75 120.203125 66.4375 120.203125 C 65.863281 119.023438 65.351562 117.839844 64.886719 116.613281 C 79.863281 116.179688 94.78125 113.519531 108.738281 108.003906 C 115.511719 105.316406 122.257812 102.148438 128.050781 97.671875 C 133.335938 93.585938 137.34375 88.332031 140.203125 82.320312 C 143.25 75.886719 145.066406 68.96875 146.296875 61.960938 C 147.648438 63.003906 148.96875 64.074219 150.242188 65.195312 Z M 144.195312 60.378906 C 142.082031 72.917969 138.136719 86 128.175781 94.546875 C 122.675781 99.257812 115.960938 102.535156 109.296875 105.253906 C 102.613281 107.988281 95.683594 110.085938 88.613281 111.5625 C 80.535156 113.257812 72.3125 114.097656 64.0625 114.296875 C 63.144531 111.484375 62.476562 108.59375 62.105469 105.628906 C 67.105469 104.367188 72.003906 102.753906 76.664062 100.5 C 84.992188 96.492188 92.171875 90.570312 99.195312 84.648438 C 111.269531 74.472656 123.609375 64.605469 136.304688 55.234375 C 139.039062 56.820312 141.664062 58.527344 144.195312 60.378906 Z M 125.691406 60.269531 C 117.875 66.265625 110.183594 72.421875 102.613281 78.730469 C 95.3125 84.820312 88.195312 91.269531 79.941406 96.085938 C 71.054688 101.292969 61.09375 103.746094 51.039062 105.550781 C 51.429688 104.042969 51.863281 102.566406 52.359375 101.105469 L 52.359375 101.089844 C 60.675781 99.394531 68.847656 96.722656 76.199219 92.386719 C 84.0625 87.742188 90.929688 81.621094 97.859375 75.730469 C 112.386719 63.375 127.882812 52.25 143.714844 41.636719 C 152.710938 35.609375 161.804688 29.75 170.910156 23.90625 C 171.671875 24.964844 172.449219 26.019531 173.207031 27.09375 C 156.953125 37.550781 141.027344 48.519531 125.691406 60.269531 Z M 125.691406 60.269531 " fill-opacity="1" fill-rule="nonzero"/><g fill="#00418b" fill-opacity="1"><g transform="translate(142.202197, 342.539274)"><g><path d="M 11.125 -10.078125 L 4.46875 -10.078125 L 4.46875 -7.578125 L 10.46875 -7.578125 L 10.46875 -5.0625 L 4.46875 -5.0625 L 4.46875 -2.515625 L 11.328125 -2.515625 L 11.328125 0 L 1.265625 0 L 1.265625 -12.59375 L 11.125 -12.59375 Z M 11.125 -10.078125 "/></g></g></g><g fill="#00418b" fill-opacity="1"><g transform="translate(156.126322, 342.539274)"><g><path d="M 1.265625 -12.59375 L 6.671875 -12.59375 C 8.648438 -12.59375 10.257812 -12.007812 11.5 -10.84375 C 12.75 -9.6875 13.375 -8.171875 13.375 -6.296875 C 13.375 -4.441406 12.742188 -2.925781 11.484375 -1.75 C 10.222656 -0.582031 8.578125 0 6.546875 0 L 1.265625 0 Z M 4.46875 -10.046875 L 4.46875 -2.5625 L 6.75 -2.5625 C 7.726562 -2.5625 8.53125 -2.90625 9.15625 -3.59375 C 9.789062 -4.28125 10.109375 -5.175781 10.109375 -6.28125 C 10.109375 -7.382812 9.78125 -8.285156 9.125 -8.984375 C 8.46875 -9.691406 7.628906 -10.046875 6.609375 -10.046875 Z M 4.46875 -10.046875 "/></g></g></g><g fill="#00418b" fill-opacity="1"><g transform="translate(171.723356, 342.539274)"><g><path d="M 12.59375 -12.59375 L 12.59375 -5.296875 C 12.59375 -3.628906 12.078125 -2.304688 11.046875 -1.328125 C 10.015625 -0.347656 8.617188 0.140625 6.859375 0.140625 C 5.078125 0.140625 3.660156 -0.347656 2.609375 -1.328125 C 1.566406 -2.304688 1.046875 -3.628906 1.046875 -5.296875 L 1.046875 -12.59375 L 4.25 -12.59375 L 4.25 -5.296875 C 4.25 -4.453125 4.488281 -3.78125 4.96875 -3.28125 C 5.457031 -2.78125 6.09375 -2.53125 6.875 -2.53125 C 7.644531 -2.53125 8.257812 -2.773438 8.71875 -3.265625 C 9.175781 -3.765625 9.40625 -4.441406 9.40625 -5.296875 L 9.40625 -12.59375 Z M 12.59375 -12.59375 "/></g></g></g><g fill="#00418b" fill-opacity="1"><g transform="translate(187.158502, 342.539274)"><g><path d="M 7.15625 -12.703125 C 8.09375 -12.703125 9.015625 -12.507812 9.921875 -12.125 C 10.828125 -11.75 11.597656 -11.234375 12.234375 -10.578125 L 10.390625 -8.390625 C 9.984375 -8.890625 9.492188 -9.285156 8.921875 -9.578125 C 8.347656 -9.878906 7.78125 -10.03125 7.21875 -10.03125 C 6.21875 -10.03125 5.378906 -9.675781 4.703125 -8.96875 C 4.035156 -8.269531 3.703125 -7.40625 3.703125 -6.375 C 3.703125 -5.3125 4.035156 -4.425781 4.703125 -3.71875 C 5.378906 -3.007812 6.21875 -2.65625 7.21875 -2.65625 C 7.75 -2.65625 8.296875 -2.785156 8.859375 -3.046875 C 9.429688 -3.316406 9.941406 -3.679688 10.390625 -4.140625 L 12.265625 -2.15625 C 11.578125 -1.457031 10.765625 -0.898438 9.828125 -0.484375 C 8.898438 -0.0664062 7.976562 0.140625 7.0625 0.140625 C 5.164062 0.140625 3.585938 -0.472656 2.328125 -1.703125 C 1.066406 -2.941406 0.4375 -4.488281 0.4375 -6.34375 C 0.4375 -8.144531 1.078125 -9.65625 2.359375 -10.875 C 3.640625 -12.09375 5.238281 -12.703125 7.15625 -12.703125 Z M 7.15625 -12.703125 "/></g></g></g><g fill="#00418b" fill-opacity="1"><g transform="translate(201.406416, 342.539274)"><g><path d="M 9.625 -2.328125 L 4.125 -2.328125 L 3.203125 0 L -0.09375 0 L 5.34375 -12.59375 L 8.640625 -12.59375 L 13.953125 0 L 10.53125 0 Z M 8.6875 -4.75 L 6.890625 -9.40625 L 5.0625 -4.75 Z M 8.6875 -4.75 "/></g></g></g><g fill="#00418b" fill-opacity="1"><g transform="translate(217.057423, 342.539274)"><g><path d="M 10.890625 -10.03125 L 7.09375 -10.03125 L 7.09375 0 L 3.890625 0 L 3.890625 -10.03125 L 0.125 -10.03125 L 0.125 -12.625 L 10.890625 -12.625 Z M 10.890625 -10.03125 "/></g></g></g><g fill="#00418b" fill-opacity="1"><g transform="translate(229.848289, 342.539274)"><g><path d="M 4.46875 0 L 1.265625 0 L 1.265625 -12.59375 L 4.46875 -12.59375 Z M 4.46875 0 "/></g></g></g><g fill="#00418b" fill-opacity="1"><g transform="translate(237.368567, 342.539274)"><g><path d="M 7.234375 -12.703125 C 9.191406 -12.703125 10.816406 -12.09375 12.109375 -10.875 C 13.410156 -9.65625 14.0625 -8.132812 14.0625 -6.3125 C 14.0625 -4.476562 13.410156 -2.941406 12.109375 -1.703125 C 10.804688 -0.472656 9.179688 0.140625 7.234375 0.140625 C 5.285156 0.140625 3.664062 -0.472656 2.375 -1.703125 C 1.082031 -2.929688 0.4375 -4.46875 0.4375 -6.3125 C 0.4375 -8.15625 1.082031 -9.679688 2.375 -10.890625 C 3.664062 -12.097656 5.285156 -12.703125 7.234375 -12.703125 Z M 7.265625 -10.03125 C 6.285156 -10.03125 5.445312 -9.671875 4.75 -8.953125 C 4.050781 -8.242188 3.703125 -7.359375 3.703125 -6.296875 C 3.703125 -5.242188 4.050781 -4.351562 4.75 -3.625 C 5.457031 -2.894531 6.296875 -2.53125 7.265625 -2.53125 C 8.242188 -2.53125 9.070312 -2.894531 9.75 -3.625 C 10.425781 -4.351562 10.765625 -5.242188 10.765625 -6.296875 C 10.765625 -7.359375 10.425781 -8.242188 9.75 -8.953125 C 9.070312 -9.671875 8.242188 -10.03125 7.265625 -10.03125 Z M 7.265625 -10.03125 "/></g></g></g><g fill="#00418b" fill-opacity="1"><g transform="translate(253.64916, 342.539274)"><g><path d="M 12.890625 0 L 10.0625 0 L 4.265625 -7.765625 L 4.265625 0 L 1.265625 0 L 1.265625 -12.59375 L 4.09375 -12.59375 L 9.90625 -4.828125 L 9.90625 -12.59375 L 12.890625 -12.59375 Z M 12.890625 0 "/></g></g></g><g fill="#00418b" fill-opacity="1"><g transform="translate(127.357048, 317.393943)"><g><path d="M 2.65625 -26.59375 L 14.09375 -26.59375 C 18.28125 -26.59375 21.679688 -25.363281 24.296875 -22.90625 C 26.921875 -20.457031 28.234375 -17.253906 28.234375 -13.296875 C 28.234375 -9.367188 26.898438 -6.171875 24.234375 -3.703125 C 21.578125 -1.234375 18.109375 0 13.828125 0 L 2.65625 0 Z M 9.421875 -21.203125 L 9.421875 -5.390625 L 14.25 -5.390625 C 16.320312 -5.390625 18.023438 -6.117188 19.359375 -7.578125 C 20.691406 -9.035156 21.359375 -10.929688 21.359375 -13.265625 C 21.359375 -15.597656 20.660156 -17.503906 19.265625 -18.984375 C 17.867188 -20.460938 16.097656 -21.203125 13.953125 -21.203125 Z M 9.421875 -21.203125 "/></g></g></g><g fill="#00418b" fill-opacity="1"><g transform="translate(156.497092, 317.393943)"><g><path d="M 9.421875 0 L 2.65625 0 L 2.65625 -26.59375 L 9.421875 -26.59375 Z M 9.421875 0 "/></g></g></g><g fill="#00418b" fill-opacity="1"><g transform="translate(168.578619, 317.393943)"><g><path d="M 20.328125 -13.53125 L 26.1875 -13.53125 L 26.1875 -3.15625 C 24.738281 -2.144531 22.992188 -1.316406 20.953125 -0.671875 C 18.910156 -0.0234375 16.96875 0.296875 15.125 0.296875 C 11.070312 0.296875 7.6875 -1 4.96875 -3.59375 C 2.257812 -6.1875 0.90625 -9.421875 0.90625 -13.296875 C 0.90625 -17.148438 2.296875 -20.367188 5.078125 -22.953125 C 7.867188 -25.535156 11.367188 -26.828125 15.578125 -26.828125 C 17.554688 -26.828125 19.519531 -26.472656 21.46875 -25.765625 C 23.414062 -25.054688 25.078125 -24.09375 26.453125 -22.875 L 22.640625 -18.28125 C 21.679688 -19.164062 20.566406 -19.867188 19.296875 -20.390625 C 18.035156 -20.910156 16.785156 -21.171875 15.546875 -21.171875 C 13.367188 -21.171875 11.535156 -20.414062 10.046875 -18.90625 C 8.566406 -17.394531 7.828125 -15.523438 7.828125 -13.296875 C 7.828125 -11.046875 8.570312 -9.160156 10.0625 -7.640625 C 11.5625 -6.117188 13.414062 -5.359375 15.625 -5.359375 C 17.039062 -5.359375 18.609375 -5.789062 20.328125 -6.65625 Z M 20.328125 -13.53125 "/></g></g></g><g fill="#00418b" fill-opacity="1"><g transform="translate(196.806854, 317.393943)"><g><path d="M 9.421875 0 L 2.65625 0 L 2.65625 -26.59375 L 9.421875 -26.59375 Z M 9.421875 0 "/></g></g></g><g fill="#00418b" fill-opacity="1"><g transform="translate(208.888381, 317.393943)"><g><path d="M 22.984375 -21.171875 L 14.96875 -21.171875 L 14.96875 0 L 8.203125 0 L 8.203125 -21.171875 L 0.265625 -21.171875 L 0.265625 -26.640625 L 22.984375 -26.640625 Z M 22.984375 -21.171875 "/></g></g></g><g fill="#00418b" fill-opacity="1"><g transform="translate(232.101633, 317.393943)"><g><path d="M 20.328125 -4.90625 L 8.703125 -4.90625 L 6.765625 0 L -0.1875 0 L 11.28125 -26.59375 L 18.234375 -26.59375 L 29.453125 0 L 22.234375 0 Z M 18.359375 -10.03125 L 14.546875 -19.875 L 10.671875 -10.03125 Z M 18.359375 -10.03125 "/></g></g></g><g fill="#00418b" fill-opacity="1"><g transform="translate(261.355659, 317.393943)"><g><path d="M 9.421875 -5.65625 L 20.703125 -5.65625 L 20.703125 0 L 2.65625 0 L 2.65625 -26.59375 L 9.421875 -26.59375 Z M 9.421875 -5.65625 "/></g></g></g></svg>